%TF.GenerationSoftware,KiCad,Pcbnew,9.0.7*%
%TF.CreationDate,2026-06-23T16:09:07-07:00*%
%TF.ProjectId,dadbox-pcb,64616462-6f78-42d7-9063-622e6b696361,rev?*%
%TF.SameCoordinates,Original*%
%TF.FileFunction,Copper,L1,Top*%
%TF.FilePolarity,Positive*%
%FSLAX46Y46*%
G04 Gerber Fmt 4.6, Leading zero omitted, Abs format (unit mm)*
G04 Created by KiCad (PCBNEW 9.0.7) date 2026-06-23 16:09:07*
%MOMM*%
%LPD*%
G01*
G04 APERTURE LIST*
%ADD10C,0.300000*%
%TA.AperFunction,EtchedComponent*%
%ADD11C,0.000000*%
%TD*%
G04 APERTURE END LIST*
D10*
G36*
X60083253Y-171166634D02*
G01*
X59934616Y-171152880D01*
X59836251Y-171122583D01*
X59803616Y-171099064D01*
X59779288Y-171068304D01*
X59751332Y-170983147D01*
X59741890Y-170846829D01*
X59741890Y-169030986D01*
X59933897Y-169030986D01*
X60114022Y-169040316D01*
X60247082Y-169066261D01*
X60302231Y-169089607D01*
X60348122Y-169121066D01*
X60412350Y-169202406D01*
X60463871Y-169335370D01*
X60499215Y-169485878D01*
X60584672Y-169485878D01*
X60563269Y-168881631D01*
X58557746Y-168881631D01*
X58536343Y-169485878D01*
X58621800Y-169485878D01*
X58663306Y-169319331D01*
X58712906Y-169198980D01*
X58746199Y-169150728D01*
X58785965Y-169112553D01*
X58880075Y-169065025D01*
X59025949Y-169038587D01*
X59187118Y-169030986D01*
X59379125Y-169030986D01*
X59379125Y-170807746D01*
X59369342Y-170978228D01*
X59355729Y-171037281D01*
X59333437Y-171081907D01*
X59308254Y-171108475D01*
X59275241Y-171128571D01*
X59172750Y-171155127D01*
X59044897Y-171166634D01*
X59044897Y-171234100D01*
X60083253Y-171234100D01*
X60083253Y-171166634D01*
G37*
G36*
X62433550Y-171180902D02*
G01*
X62311029Y-171151006D01*
X62273336Y-171128015D01*
X62247985Y-171094720D01*
X62226615Y-171009227D01*
X62220296Y-170871024D01*
X62220296Y-170162399D01*
X62215333Y-170049100D01*
X62200444Y-169948253D01*
X62178592Y-169868298D01*
X62148721Y-169798518D01*
X62114354Y-169743616D01*
X62073270Y-169697325D01*
X62027806Y-169661220D01*
X61976227Y-169633030D01*
X61853497Y-169600387D01*
X61782930Y-169596305D01*
X61698652Y-169601383D01*
X61620191Y-169617076D01*
X61553215Y-169640994D01*
X61489116Y-169674674D01*
X61365126Y-169774205D01*
X61260108Y-169895326D01*
X61260108Y-168814009D01*
X61242427Y-168803463D01*
X60833443Y-168931416D01*
X60737440Y-168959798D01*
X60737440Y-169016718D01*
X60780091Y-169013150D01*
X60870232Y-169019451D01*
X60925108Y-169043705D01*
X60953246Y-169095850D01*
X60961396Y-169194611D01*
X60961396Y-170871024D01*
X60946242Y-171051695D01*
X60926301Y-171104692D01*
X60892766Y-171139677D01*
X60815797Y-171168125D01*
X60733873Y-171180902D01*
X60733873Y-171234100D01*
X61501899Y-171234100D01*
X61501899Y-171180902D01*
X61393009Y-171164792D01*
X61323287Y-171131827D01*
X61284089Y-171072000D01*
X61264432Y-170960771D01*
X61260108Y-170871024D01*
X61260108Y-170012733D01*
X61348641Y-169923403D01*
X61430305Y-169858669D01*
X61490607Y-169824386D01*
X61551267Y-169802029D01*
X61658390Y-169788466D01*
X61714504Y-169793419D01*
X61763967Y-169808238D01*
X61803705Y-169830629D01*
X61837724Y-169861332D01*
X61888778Y-169948194D01*
X61917602Y-170079907D01*
X61921584Y-170165966D01*
X61921584Y-170871024D01*
X61910818Y-171014716D01*
X61881177Y-171103981D01*
X61858138Y-171130771D01*
X61827702Y-171150439D01*
X61733765Y-171174978D01*
X61679793Y-171180902D01*
X61679793Y-171234100D01*
X62433550Y-171234100D01*
X62433550Y-171180902D01*
G37*
G36*
X63376038Y-169596344D02*
G01*
X63469912Y-169602131D01*
X63559520Y-169617449D01*
X63644747Y-169641985D01*
X63724834Y-169675277D01*
X63799621Y-169717071D01*
X63868376Y-169766832D01*
X63930836Y-169824305D01*
X63986370Y-169888929D01*
X64034602Y-169960367D01*
X64075026Y-170038110D01*
X64107196Y-170121689D01*
X64130699Y-170210702D01*
X64145087Y-170304548D01*
X64149978Y-170402950D01*
X64149051Y-170447553D01*
X64139816Y-170549050D01*
X64121078Y-170646136D01*
X64093172Y-170738736D01*
X64056672Y-170825803D01*
X63960264Y-170980722D01*
X63837245Y-171105964D01*
X63693184Y-171198006D01*
X63532999Y-171254544D01*
X63360548Y-171273804D01*
X63343097Y-171273623D01*
X63252960Y-171266757D01*
X63166657Y-171250279D01*
X63083615Y-171224260D01*
X63005364Y-171189307D01*
X62931499Y-171145314D01*
X62863434Y-171093125D01*
X62801123Y-171032679D01*
X62745630Y-170964876D01*
X62697279Y-170889966D01*
X62656717Y-170808642D01*
X62624476Y-170721617D01*
X62600913Y-170629195D01*
X62586553Y-170532521D01*
X62581665Y-170431487D01*
X62582044Y-170402250D01*
X62589535Y-170300455D01*
X62597163Y-170256541D01*
X62901780Y-170256541D01*
X62901787Y-170261343D01*
X62907200Y-170392406D01*
X62922397Y-170520863D01*
X62977975Y-170755107D01*
X63058270Y-170945779D01*
X63093224Y-171002906D01*
X63135846Y-171054428D01*
X63183985Y-171097492D01*
X63290347Y-171155151D01*
X63403199Y-171174388D01*
X63477036Y-171167826D01*
X63534575Y-171152250D01*
X63587534Y-171127727D01*
X63637351Y-171093159D01*
X63681887Y-171049503D01*
X63723286Y-170993316D01*
X63758252Y-170927419D01*
X63788325Y-170846362D01*
X63810461Y-170754883D01*
X63824957Y-170646848D01*
X63829864Y-170527956D01*
X63826192Y-170417733D01*
X63792348Y-170191326D01*
X63729566Y-170007426D01*
X63646131Y-169868390D01*
X63548614Y-169772170D01*
X63440327Y-169715200D01*
X63382226Y-169700772D01*
X63321310Y-169695875D01*
X63268090Y-169699204D01*
X63207859Y-169711857D01*
X63152204Y-169733581D01*
X63100001Y-169764989D01*
X63053224Y-169805155D01*
X63010341Y-169856188D01*
X62974082Y-169915878D01*
X62943540Y-169987249D01*
X62921052Y-170067030D01*
X62906670Y-170157898D01*
X62901780Y-170256541D01*
X62597163Y-170256541D01*
X62606325Y-170203790D01*
X62665638Y-170028914D01*
X62756107Y-169880357D01*
X62874227Y-169760432D01*
X62942674Y-169711919D01*
X63017064Y-169671358D01*
X63097015Y-169639143D01*
X63182209Y-169615641D01*
X63272582Y-169601203D01*
X63367528Y-169596305D01*
X63376038Y-169596344D01*
G37*
G36*
X64312207Y-171234100D02*
G01*
X65101636Y-171234100D01*
X65101636Y-171180902D01*
X65003869Y-171173417D01*
X64934644Y-171152981D01*
X64904407Y-171132237D01*
X64882716Y-171104259D01*
X64861607Y-171026358D01*
X64859844Y-170995720D01*
X64859844Y-169991330D01*
X64913197Y-169923709D01*
X65020414Y-169850181D01*
X65167975Y-169795236D01*
X65279529Y-169781332D01*
X65330517Y-169786296D01*
X65375263Y-169801188D01*
X65441477Y-169854773D01*
X65487350Y-169945035D01*
X65512034Y-170087024D01*
X65514187Y-170155264D01*
X65514187Y-170927944D01*
X65503901Y-171039680D01*
X65476692Y-171112430D01*
X65453542Y-171137286D01*
X65422608Y-171155420D01*
X65324828Y-171176964D01*
X65272395Y-171180902D01*
X65272395Y-171234100D01*
X66068959Y-171234100D01*
X66068959Y-171180902D01*
X65979707Y-171175378D01*
X65913272Y-171156562D01*
X65880814Y-171135598D01*
X65855799Y-171106664D01*
X65825059Y-171023407D01*
X65812898Y-170895994D01*
X65812898Y-169998464D01*
X65868454Y-169927652D01*
X65926627Y-169871694D01*
X65979703Y-169834944D01*
X66036616Y-169808114D01*
X66161591Y-169782559D01*
X66200479Y-169781332D01*
X66273255Y-169786528D01*
X66332729Y-169803049D01*
X66370318Y-169824534D01*
X66400992Y-169854313D01*
X66442437Y-169937822D01*
X66464607Y-170079203D01*
X66467241Y-170173100D01*
X66467241Y-170924376D01*
X66453821Y-171062698D01*
X66437216Y-171106087D01*
X66410116Y-171136446D01*
X66338998Y-171165379D01*
X66232428Y-171180902D01*
X66232428Y-171234100D01*
X67011156Y-171234100D01*
X67011156Y-171180902D01*
X66918720Y-171173768D01*
X66862167Y-171159574D01*
X66820050Y-171135810D01*
X66796849Y-171110144D01*
X66780538Y-171076926D01*
X66765797Y-170963615D01*
X66765797Y-170230020D01*
X66760839Y-170099703D01*
X66745982Y-169984248D01*
X66724320Y-169893580D01*
X66694776Y-169814889D01*
X66661332Y-169754139D01*
X66621489Y-169703217D01*
X66578541Y-169664580D01*
X66530044Y-169634549D01*
X66418100Y-169600618D01*
X66353401Y-169596305D01*
X66271937Y-169601318D01*
X66192639Y-169616563D01*
X66043493Y-169676218D01*
X65893100Y-169780640D01*
X65773814Y-169895326D01*
X65743918Y-169817217D01*
X65707259Y-169751199D01*
X65668602Y-169702302D01*
X65624206Y-169662804D01*
X65523322Y-169613178D01*
X65396780Y-169596305D01*
X65311241Y-169602177D01*
X65228745Y-169623430D01*
X65084306Y-169698071D01*
X64845731Y-169870356D01*
X64845731Y-169603439D01*
X64820760Y-169596305D01*
X64571834Y-169681684D01*
X64322908Y-169756362D01*
X64322908Y-169816849D01*
X64436747Y-169802580D01*
X64478840Y-169807823D01*
X64511259Y-169824673D01*
X64544850Y-169879142D01*
X64560492Y-169991342D01*
X64561133Y-170030568D01*
X64561133Y-170931511D01*
X64551840Y-171031010D01*
X64529052Y-171101385D01*
X64507073Y-171131265D01*
X64477588Y-171153223D01*
X64393641Y-171176831D01*
X64312207Y-171180902D01*
X64312207Y-171234100D01*
G37*
G36*
X67929545Y-169603578D02*
G01*
X68072566Y-169640429D01*
X68180259Y-169703773D01*
X68222482Y-169744924D01*
X68257183Y-169792499D01*
X68304523Y-169905043D01*
X68322909Y-170018844D01*
X68328371Y-170167517D01*
X68328371Y-170864045D01*
X68339062Y-170992905D01*
X68366857Y-171048666D01*
X68395893Y-171065946D01*
X68435076Y-171071251D01*
X68480104Y-171066226D01*
X68532934Y-171044870D01*
X68591566Y-171003319D01*
X68591566Y-171096066D01*
X68497832Y-171187842D01*
X68398705Y-171250909D01*
X68338267Y-171268460D01*
X68271451Y-171273804D01*
X68209696Y-171268564D01*
X68134217Y-171237291D01*
X68103591Y-171207461D01*
X68079485Y-171167753D01*
X68057156Y-171100554D01*
X68043928Y-171014331D01*
X67988311Y-171060546D01*
X67807215Y-171188624D01*
X67663812Y-171253009D01*
X67594143Y-171268723D01*
X67524673Y-171273804D01*
X67415799Y-171259612D01*
X67358927Y-171238999D01*
X67307602Y-171210009D01*
X67262458Y-171173222D01*
X67224117Y-171129209D01*
X67193221Y-171078569D01*
X67170377Y-171021857D01*
X67156220Y-170959680D01*
X67151361Y-170892582D01*
X67162565Y-170794064D01*
X67168071Y-170779673D01*
X67464186Y-170779673D01*
X67464186Y-170793787D01*
X67482849Y-170904411D01*
X67534304Y-170993723D01*
X67605966Y-171048970D01*
X67688297Y-171067683D01*
X67799675Y-171050942D01*
X67947925Y-170989361D01*
X68011712Y-170936729D01*
X68034298Y-170881608D01*
X68040361Y-170800921D01*
X68040361Y-170285388D01*
X67825615Y-170370179D01*
X67652187Y-170465396D01*
X67547145Y-170557283D01*
X67512121Y-170605431D01*
X67487038Y-170656341D01*
X67470335Y-170715783D01*
X67464186Y-170779673D01*
X67168071Y-170779673D01*
X67209637Y-170671032D01*
X67279314Y-170581773D01*
X67386232Y-170494896D01*
X67513157Y-170419739D01*
X67713423Y-170329168D01*
X68040361Y-170196054D01*
X68040361Y-169978147D01*
X68039553Y-169948223D01*
X68016664Y-169833519D01*
X67966289Y-169753124D01*
X67930022Y-169723287D01*
X67886911Y-169701381D01*
X67832330Y-169686695D01*
X67770032Y-169681762D01*
X67685212Y-169691544D01*
X67589412Y-169732610D01*
X67532626Y-169790982D01*
X67513971Y-169856708D01*
X67524673Y-169942475D01*
X67527455Y-169960975D01*
X67531807Y-169999705D01*
X67531604Y-170006808D01*
X67523616Y-170044761D01*
X67505287Y-170079433D01*
X67444935Y-170131645D01*
X67371750Y-170149681D01*
X67365256Y-170149542D01*
X67325374Y-170142352D01*
X67289905Y-170125429D01*
X67237150Y-170068172D01*
X67218827Y-169996138D01*
X67221758Y-169955293D01*
X67235137Y-169900952D01*
X67258698Y-169849577D01*
X67294652Y-169798088D01*
X67340713Y-169751145D01*
X67399469Y-169707063D01*
X67467502Y-169669388D01*
X67545345Y-169638271D01*
X67630638Y-169615239D01*
X67816250Y-169596305D01*
X67929545Y-169603578D01*
G37*
G36*
X69720652Y-170117421D02*
G01*
X69706383Y-169628409D01*
X69667299Y-169628409D01*
X69644494Y-169655433D01*
X69620102Y-169666692D01*
X69610380Y-169667493D01*
X69570820Y-169662149D01*
X69518689Y-169644593D01*
X69514376Y-169642678D01*
X69415115Y-169613822D01*
X69314417Y-169598241D01*
X69265450Y-169596305D01*
X69188070Y-169601172D01*
X69115502Y-169615389D01*
X69048232Y-169638441D01*
X68987061Y-169669726D01*
X68932908Y-169708427D01*
X68886036Y-169754127D01*
X68847507Y-169805560D01*
X68817286Y-169862711D01*
X68796218Y-169924073D01*
X68784369Y-169989927D01*
X68781867Y-170038788D01*
X68786960Y-170108750D01*
X68802762Y-170174634D01*
X68827207Y-170231995D01*
X68861828Y-170287393D01*
X68967093Y-170397681D01*
X69143490Y-170521178D01*
X69197829Y-170552926D01*
X69404104Y-170670797D01*
X69469054Y-170713783D01*
X69519826Y-170760446D01*
X69552526Y-170804272D01*
X69574785Y-170851506D01*
X69588977Y-170938645D01*
X69584094Y-170992886D01*
X69569769Y-171041703D01*
X69547274Y-171083496D01*
X69516769Y-171119328D01*
X69433061Y-171171615D01*
X69317874Y-171195034D01*
X69293833Y-171195636D01*
X69216881Y-171190548D01*
X69148145Y-171174785D01*
X69094745Y-171151918D01*
X69046626Y-171119988D01*
X68966613Y-171030095D01*
X68897977Y-170889859D01*
X68842353Y-170695768D01*
X68785434Y-170695768D01*
X68785434Y-171252556D01*
X68831652Y-171252556D01*
X68863429Y-171219234D01*
X68905123Y-171210009D01*
X68913386Y-171209905D01*
X69023183Y-171220942D01*
X69077011Y-171234100D01*
X69190265Y-171259288D01*
X69293080Y-171272239D01*
X69336639Y-171273804D01*
X69479376Y-171254889D01*
X69609993Y-171199537D01*
X69667912Y-171159249D01*
X69718794Y-171111913D01*
X69761594Y-171058623D01*
X69795720Y-170999986D01*
X69819732Y-170938763D01*
X69834006Y-170874017D01*
X69837903Y-170817206D01*
X69832824Y-170745961D01*
X69817126Y-170680617D01*
X69793324Y-170625859D01*
X69759839Y-170574104D01*
X69658564Y-170473660D01*
X69539192Y-170392248D01*
X69155178Y-170163794D01*
X69103310Y-170126464D01*
X69061822Y-170084252D01*
X69032274Y-170040142D01*
X69012631Y-169992678D01*
X69002255Y-169920917D01*
X69007114Y-169869502D01*
X69021271Y-169823083D01*
X69074250Y-169747953D01*
X69157769Y-169697869D01*
X69270080Y-169678239D01*
X69276152Y-169678194D01*
X69344266Y-169683300D01*
X69404996Y-169699185D01*
X69452168Y-169722308D01*
X69494801Y-169754709D01*
X69568064Y-169849145D01*
X69634613Y-170004211D01*
X69667299Y-170117421D01*
X69720652Y-170117421D01*
G37*
G36*
X73939835Y-168881631D02*
G01*
X73232295Y-168881631D01*
X72446277Y-170676226D01*
X71624898Y-168881631D01*
X70920771Y-168881631D01*
X70920771Y-168949252D01*
X71073817Y-168963510D01*
X71171774Y-168995833D01*
X71201652Y-169019796D01*
X71223783Y-169051045D01*
X71249764Y-169140990D01*
X71258721Y-169269056D01*
X71258721Y-170711742D01*
X71248866Y-170895360D01*
X71221698Y-171020850D01*
X71199336Y-171064761D01*
X71169647Y-171098786D01*
X71093147Y-171139920D01*
X70961170Y-171163130D01*
X70913792Y-171166634D01*
X70913792Y-171234100D01*
X71749439Y-171234100D01*
X71749439Y-171166634D01*
X71639297Y-171155148D01*
X71556012Y-171130456D01*
X71516472Y-171106554D01*
X71484883Y-171074655D01*
X71443958Y-170988855D01*
X71420516Y-170839568D01*
X71415056Y-170711742D01*
X71415056Y-169279757D01*
X72307623Y-171234100D01*
X72357408Y-171234100D01*
X73267811Y-169198023D01*
X73267811Y-170807746D01*
X73259202Y-170963600D01*
X73230483Y-171064742D01*
X73207607Y-171096318D01*
X73177153Y-171120346D01*
X73088851Y-171150786D01*
X72944130Y-171166634D01*
X72944130Y-171234100D01*
X73939835Y-171234100D01*
X73939835Y-171166634D01*
X73816894Y-171153754D01*
X73731406Y-171126671D01*
X73697925Y-171103298D01*
X73672608Y-171072484D01*
X73642528Y-170987025D01*
X73630422Y-170846829D01*
X73630422Y-169269056D01*
X73640419Y-169139284D01*
X73667656Y-169051115D01*
X73690833Y-169019533D01*
X73721815Y-168995273D01*
X73811935Y-168964153D01*
X73939835Y-168949252D01*
X73939835Y-168881631D01*
G37*
G36*
X74939803Y-169603578D02*
G01*
X75082824Y-169640429D01*
X75190517Y-169703773D01*
X75232741Y-169744924D01*
X75267441Y-169792499D01*
X75314782Y-169905043D01*
X75333167Y-170018844D01*
X75338629Y-170167517D01*
X75338629Y-170864045D01*
X75349320Y-170992905D01*
X75377115Y-171048666D01*
X75406151Y-171065946D01*
X75445334Y-171071251D01*
X75490362Y-171066226D01*
X75543192Y-171044870D01*
X75601824Y-171003319D01*
X75601824Y-171096066D01*
X75508090Y-171187842D01*
X75408963Y-171250909D01*
X75348525Y-171268460D01*
X75281710Y-171273804D01*
X75219954Y-171268564D01*
X75144475Y-171237291D01*
X75113849Y-171207461D01*
X75089743Y-171167753D01*
X75067414Y-171100554D01*
X75054186Y-171014331D01*
X74998569Y-171060546D01*
X74817473Y-171188624D01*
X74674070Y-171253009D01*
X74604401Y-171268723D01*
X74534931Y-171273804D01*
X74426057Y-171259612D01*
X74369186Y-171238999D01*
X74317860Y-171210009D01*
X74272717Y-171173222D01*
X74234376Y-171129209D01*
X74203479Y-171078569D01*
X74180635Y-171021857D01*
X74166478Y-170959680D01*
X74161619Y-170892582D01*
X74172823Y-170794064D01*
X74178329Y-170779673D01*
X74474444Y-170779673D01*
X74474444Y-170793787D01*
X74493107Y-170904411D01*
X74544562Y-170993723D01*
X74616224Y-171048970D01*
X74698555Y-171067683D01*
X74809934Y-171050942D01*
X74958183Y-170989361D01*
X75021970Y-170936729D01*
X75044557Y-170881608D01*
X75050619Y-170800921D01*
X75050619Y-170285388D01*
X74835874Y-170370179D01*
X74662445Y-170465396D01*
X74557403Y-170557283D01*
X74522379Y-170605431D01*
X74497296Y-170656341D01*
X74480593Y-170715783D01*
X74474444Y-170779673D01*
X74178329Y-170779673D01*
X74219895Y-170671032D01*
X74289572Y-170581773D01*
X74396490Y-170494896D01*
X74523415Y-170419739D01*
X74723681Y-170329168D01*
X75050619Y-170196054D01*
X75050619Y-169978147D01*
X75049812Y-169948223D01*
X75026922Y-169833519D01*
X74976547Y-169753124D01*
X74940281Y-169723287D01*
X74897169Y-169701381D01*
X74842588Y-169686695D01*
X74780290Y-169681762D01*
X74695471Y-169691544D01*
X74599670Y-169732610D01*
X74542884Y-169790982D01*
X74524230Y-169856708D01*
X74534931Y-169942475D01*
X74537713Y-169960975D01*
X74542065Y-169999705D01*
X74541862Y-170006808D01*
X74533874Y-170044761D01*
X74515546Y-170079433D01*
X74455193Y-170131645D01*
X74382008Y-170149681D01*
X74375515Y-170149542D01*
X74335632Y-170142352D01*
X74300163Y-170125429D01*
X74247409Y-170068172D01*
X74229085Y-169996138D01*
X74232016Y-169955293D01*
X74245395Y-169900952D01*
X74268956Y-169849577D01*
X74304910Y-169798088D01*
X74350972Y-169751145D01*
X74409727Y-169707063D01*
X74477760Y-169669388D01*
X74555603Y-169638271D01*
X74640896Y-169615239D01*
X74826508Y-169596305D01*
X74939803Y-169603578D01*
G37*
G36*
X75626019Y-171234100D02*
G01*
X76479502Y-171234100D01*
X76479502Y-171180902D01*
X76364946Y-171171786D01*
X76282700Y-171149386D01*
X76246678Y-171127631D01*
X76219449Y-171098469D01*
X76188130Y-171019664D01*
X76177224Y-170913830D01*
X76177224Y-170112613D01*
X76195219Y-170034373D01*
X76257127Y-169932575D01*
X76303443Y-169883090D01*
X76353086Y-169845196D01*
X76390667Y-169827080D01*
X76426150Y-169820571D01*
X76476184Y-169840423D01*
X76518586Y-169874078D01*
X76565118Y-169913691D01*
X76608075Y-169936282D01*
X76660807Y-169945267D01*
X76700411Y-169940400D01*
X76734190Y-169926183D01*
X76780511Y-169874957D01*
X76799357Y-169792641D01*
X76799462Y-169785054D01*
X76794592Y-169735701D01*
X76780355Y-169693010D01*
X76758702Y-169659117D01*
X76729601Y-169632081D01*
X76651196Y-169600297D01*
X76603888Y-169596305D01*
X76541530Y-169601574D01*
X76483125Y-169618606D01*
X76384190Y-169681507D01*
X76267390Y-169807962D01*
X76177224Y-169930998D01*
X76177224Y-169603439D01*
X76159388Y-169596305D01*
X75896270Y-169697814D01*
X75633153Y-169788621D01*
X75633153Y-169845541D01*
X75757539Y-169831272D01*
X75798169Y-169836445D01*
X75829617Y-169852802D01*
X75863108Y-169906643D01*
X75878117Y-170016283D01*
X75878512Y-170044992D01*
X75878512Y-170935233D01*
X75864629Y-171057671D01*
X75846945Y-171096899D01*
X75817743Y-171125654D01*
X75734946Y-171158749D01*
X75626019Y-171180902D01*
X75626019Y-171234100D01*
G37*
G36*
X77907144Y-170117421D02*
G01*
X77892876Y-169628409D01*
X77853792Y-169628409D01*
X77830986Y-169655433D01*
X77806595Y-169666692D01*
X77796872Y-169667493D01*
X77757313Y-169662149D01*
X77705182Y-169644593D01*
X77700869Y-169642678D01*
X77601608Y-169613822D01*
X77500910Y-169598241D01*
X77451943Y-169596305D01*
X77374563Y-169601172D01*
X77301995Y-169615389D01*
X77234725Y-169638441D01*
X77173554Y-169669726D01*
X77119400Y-169708427D01*
X77072528Y-169754127D01*
X77034000Y-169805560D01*
X77003778Y-169862711D01*
X76982711Y-169924073D01*
X76970862Y-169989927D01*
X76968359Y-170038788D01*
X76973453Y-170108750D01*
X76989255Y-170174634D01*
X77013700Y-170231995D01*
X77048321Y-170287393D01*
X77153586Y-170397681D01*
X77329982Y-170521178D01*
X77384322Y-170552926D01*
X77590597Y-170670797D01*
X77655547Y-170713783D01*
X77706319Y-170760446D01*
X77739019Y-170804272D01*
X77761278Y-170851506D01*
X77775469Y-170938645D01*
X77770587Y-170992886D01*
X77756262Y-171041703D01*
X77733766Y-171083496D01*
X77703261Y-171119328D01*
X77619553Y-171171615D01*
X77504367Y-171195034D01*
X77480325Y-171195636D01*
X77403373Y-171190548D01*
X77334637Y-171174785D01*
X77281237Y-171151918D01*
X77233119Y-171119988D01*
X77153105Y-171030095D01*
X77084470Y-170889859D01*
X77028846Y-170695768D01*
X76971926Y-170695768D01*
X76971926Y-171252556D01*
X77018144Y-171252556D01*
X77049921Y-171219234D01*
X77091616Y-171210009D01*
X77099879Y-171209905D01*
X77209676Y-171220942D01*
X77263503Y-171234100D01*
X77376758Y-171259288D01*
X77479573Y-171272239D01*
X77523131Y-171273804D01*
X77665869Y-171254889D01*
X77796486Y-171199537D01*
X77854405Y-171159249D01*
X77905287Y-171111913D01*
X77948087Y-171058623D01*
X77982212Y-170999986D01*
X78006225Y-170938763D01*
X78020499Y-170874017D01*
X78024396Y-170817206D01*
X78019317Y-170745961D01*
X78003619Y-170680617D01*
X77979817Y-170625859D01*
X77946332Y-170574104D01*
X77845056Y-170473660D01*
X77725684Y-170392248D01*
X77341671Y-170163794D01*
X77289803Y-170126464D01*
X77248315Y-170084252D01*
X77218767Y-170040142D01*
X77199124Y-169992678D01*
X77188748Y-169920917D01*
X77193606Y-169869502D01*
X77207763Y-169823083D01*
X77260743Y-169747953D01*
X77344262Y-169697869D01*
X77456572Y-169678239D01*
X77462644Y-169678194D01*
X77530759Y-169683300D01*
X77591489Y-169699185D01*
X77638661Y-169722308D01*
X77681294Y-169754709D01*
X77754556Y-169849145D01*
X77821106Y-170004211D01*
X77853792Y-170117421D01*
X77907144Y-170117421D01*
G37*
G36*
X79900880Y-171180902D02*
G01*
X79778359Y-171151006D01*
X79740666Y-171128015D01*
X79715315Y-171094720D01*
X79693945Y-171009227D01*
X79687626Y-170871024D01*
X79687626Y-170162399D01*
X79682663Y-170049100D01*
X79667774Y-169948253D01*
X79645922Y-169868298D01*
X79616051Y-169798518D01*
X79581684Y-169743616D01*
X79540600Y-169697325D01*
X79495136Y-169661220D01*
X79443557Y-169633030D01*
X79320827Y-169600387D01*
X79250260Y-169596305D01*
X79165982Y-169601383D01*
X79087521Y-169617076D01*
X79020545Y-169640994D01*
X78956446Y-169674674D01*
X78832456Y-169774205D01*
X78727438Y-169895326D01*
X78727438Y-168814009D01*
X78709757Y-168803463D01*
X78300774Y-168931416D01*
X78204770Y-168959798D01*
X78204770Y-169016718D01*
X78247421Y-169013150D01*
X78337563Y-169019451D01*
X78392438Y-169043705D01*
X78420576Y-169095850D01*
X78428726Y-169194611D01*
X78428726Y-170871024D01*
X78413572Y-171051695D01*
X78393631Y-171104692D01*
X78360096Y-171139677D01*
X78283127Y-171168125D01*
X78201203Y-171180902D01*
X78201203Y-171234100D01*
X78969230Y-171234100D01*
X78969230Y-171180902D01*
X78860339Y-171164792D01*
X78790617Y-171131827D01*
X78751419Y-171072000D01*
X78731762Y-170960771D01*
X78727438Y-170871024D01*
X78727438Y-170012733D01*
X78815971Y-169923403D01*
X78897635Y-169858669D01*
X78957937Y-169824386D01*
X79018597Y-169802029D01*
X79125720Y-169788466D01*
X79181834Y-169793419D01*
X79231297Y-169808238D01*
X79271035Y-169830629D01*
X79305054Y-169861332D01*
X79356108Y-169948194D01*
X79384932Y-170079907D01*
X79388915Y-170165966D01*
X79388915Y-170871024D01*
X79378148Y-171014716D01*
X79348507Y-171103981D01*
X79325468Y-171130771D01*
X79295032Y-171150439D01*
X79201095Y-171174978D01*
X79147123Y-171180902D01*
X79147123Y-171234100D01*
X79900880Y-171234100D01*
X79900880Y-171180902D01*
G37*
G36*
X80855716Y-169603578D02*
G01*
X80998738Y-169640429D01*
X81106431Y-169703773D01*
X81148654Y-169744924D01*
X81183354Y-169792499D01*
X81230695Y-169905043D01*
X81249080Y-170018844D01*
X81254543Y-170167517D01*
X81254543Y-170864045D01*
X81265234Y-170992905D01*
X81293028Y-171048666D01*
X81322064Y-171065946D01*
X81361248Y-171071251D01*
X81406275Y-171066226D01*
X81459105Y-171044870D01*
X81517738Y-171003319D01*
X81517738Y-171096066D01*
X81424004Y-171187842D01*
X81324876Y-171250909D01*
X81264439Y-171268460D01*
X81197623Y-171273804D01*
X81135867Y-171268564D01*
X81060389Y-171237291D01*
X81029763Y-171207461D01*
X81005657Y-171167753D01*
X80983328Y-171100554D01*
X80970100Y-171014331D01*
X80914483Y-171060546D01*
X80733386Y-171188624D01*
X80589984Y-171253009D01*
X80520315Y-171268723D01*
X80450845Y-171273804D01*
X80341971Y-171259612D01*
X80285099Y-171238999D01*
X80233774Y-171210009D01*
X80188630Y-171173222D01*
X80150289Y-171129209D01*
X80119392Y-171078569D01*
X80096549Y-171021857D01*
X80082391Y-170959680D01*
X80077533Y-170892582D01*
X80088737Y-170794064D01*
X80094243Y-170779673D01*
X80390358Y-170779673D01*
X80390358Y-170793787D01*
X80409021Y-170904411D01*
X80460476Y-170993723D01*
X80532138Y-171048970D01*
X80614469Y-171067683D01*
X80725847Y-171050942D01*
X80874097Y-170989361D01*
X80937883Y-170936729D01*
X80960470Y-170881608D01*
X80966533Y-170800921D01*
X80966533Y-170285388D01*
X80751787Y-170370179D01*
X80578359Y-170465396D01*
X80473317Y-170557283D01*
X80438292Y-170605431D01*
X80413209Y-170656341D01*
X80396506Y-170715783D01*
X80390358Y-170779673D01*
X80094243Y-170779673D01*
X80135808Y-170671032D01*
X80205486Y-170581773D01*
X80312404Y-170494896D01*
X80439329Y-170419739D01*
X80639594Y-170329168D01*
X80966533Y-170196054D01*
X80966533Y-169978147D01*
X80965725Y-169948223D01*
X80942836Y-169833519D01*
X80892461Y-169753124D01*
X80856194Y-169723287D01*
X80813082Y-169701381D01*
X80758502Y-169686695D01*
X80696204Y-169681762D01*
X80611384Y-169691544D01*
X80515584Y-169732610D01*
X80458797Y-169790982D01*
X80440143Y-169856708D01*
X80450845Y-169942475D01*
X80453627Y-169960975D01*
X80457979Y-169999705D01*
X80457776Y-170006808D01*
X80449787Y-170044761D01*
X80431459Y-170079433D01*
X80371107Y-170131645D01*
X80297922Y-170149681D01*
X80291428Y-170149542D01*
X80251545Y-170142352D01*
X80216077Y-170125429D01*
X80163322Y-170068172D01*
X80144999Y-169996138D01*
X80147929Y-169955293D01*
X80161308Y-169900952D01*
X80184870Y-169849577D01*
X80220823Y-169798088D01*
X80266885Y-169751145D01*
X80325640Y-169707063D01*
X80393674Y-169669388D01*
X80471517Y-169638271D01*
X80556810Y-169615239D01*
X80742422Y-169596305D01*
X80855716Y-169603578D01*
G37*
G36*
X81598852Y-171234100D02*
G01*
X82438067Y-171234100D01*
X82438067Y-171180902D01*
X82314595Y-171168600D01*
X82235970Y-171139875D01*
X82210687Y-171116853D01*
X82192767Y-171086518D01*
X82173853Y-170994025D01*
X82171305Y-170935543D01*
X82171305Y-168812614D01*
X82157191Y-168805479D01*
X81901092Y-168882387D01*
X81591718Y-168961969D01*
X81591718Y-169018889D01*
X81613121Y-169018889D01*
X81723237Y-169011755D01*
X81777944Y-169017126D01*
X81818590Y-169034876D01*
X81855423Y-169086760D01*
X81871762Y-169187668D01*
X81872593Y-169228576D01*
X81872593Y-170924842D01*
X81865144Y-171017184D01*
X81843616Y-171084547D01*
X81821456Y-171115197D01*
X81791175Y-171138900D01*
X81701631Y-171169203D01*
X81598852Y-171180902D01*
X81598852Y-171234100D01*
G37*
G36*
X82586492Y-171234100D02*
G01*
X83425707Y-171234100D01*
X83425707Y-171180902D01*
X83302235Y-171168600D01*
X83223610Y-171139875D01*
X83198327Y-171116853D01*
X83180407Y-171086518D01*
X83161493Y-170994025D01*
X83158945Y-170935543D01*
X83158945Y-168812614D01*
X83144831Y-168805479D01*
X82888732Y-168882387D01*
X82579357Y-168961969D01*
X82579357Y-169018889D01*
X82600760Y-169018889D01*
X82710877Y-169011755D01*
X82765584Y-169017126D01*
X82806230Y-169034876D01*
X82843063Y-169086760D01*
X82859401Y-169187668D01*
X82860233Y-169228576D01*
X82860233Y-170924842D01*
X82852784Y-171017184D01*
X82831256Y-171084547D01*
X82809096Y-171115197D01*
X82778815Y-171138900D01*
X82689271Y-171169203D01*
X82586492Y-171180902D01*
X82586492Y-171234100D01*
G37*
G36*
X85469591Y-168882081D02*
G01*
X85722981Y-168906934D01*
X85934441Y-168962623D01*
X86091166Y-169036976D01*
X86194293Y-169119855D01*
X86257125Y-169206020D01*
X86289630Y-169272149D01*
X86313095Y-169343231D01*
X86327984Y-169422748D01*
X86332947Y-169507125D01*
X86328105Y-169592898D01*
X86294115Y-169729764D01*
X86264811Y-169789358D01*
X86226949Y-169843818D01*
X86177613Y-169895809D01*
X86118297Y-169942559D01*
X86040569Y-169988534D01*
X85949915Y-170028660D01*
X85828726Y-170068117D01*
X85689307Y-170100671D01*
X86421816Y-170999597D01*
X86476438Y-171058328D01*
X86572759Y-171128626D01*
X86645111Y-171154140D01*
X86731229Y-171166634D01*
X86731229Y-171234100D01*
X86158777Y-171234100D01*
X85312428Y-170139755D01*
X85113287Y-170146734D01*
X85113287Y-170846829D01*
X85121213Y-170974940D01*
X85147258Y-171063822D01*
X85169959Y-171095254D01*
X85200614Y-171119418D01*
X85292988Y-171151001D01*
X85433246Y-171166634D01*
X85433246Y-171234100D01*
X84448243Y-171234100D01*
X84448243Y-171166634D01*
X84554592Y-171154969D01*
X84652066Y-171127582D01*
X84683790Y-171106818D01*
X84707897Y-171079263D01*
X84728417Y-171034880D01*
X84741121Y-170976349D01*
X84750521Y-170807746D01*
X84750521Y-169269056D01*
X84748374Y-169199280D01*
X84739750Y-169141258D01*
X85113287Y-169141258D01*
X85113287Y-170015369D01*
X85354725Y-170004769D01*
X85551457Y-169974186D01*
X85648383Y-169941347D01*
X85742659Y-169894551D01*
X85790001Y-169864016D01*
X85834380Y-169822830D01*
X85871825Y-169773751D01*
X85903125Y-169715058D01*
X85926083Y-169649713D01*
X85940475Y-169577339D01*
X85945367Y-169500146D01*
X85934320Y-169376272D01*
X85892794Y-169255022D01*
X85860419Y-169204155D01*
X85820144Y-169159480D01*
X85768797Y-169118843D01*
X85708388Y-169084959D01*
X85630638Y-169055155D01*
X85541459Y-169033415D01*
X85425656Y-169018301D01*
X85294592Y-169013306D01*
X85190487Y-169022678D01*
X85137601Y-169051523D01*
X85118807Y-169088469D01*
X85113287Y-169141258D01*
X84739750Y-169141258D01*
X84731180Y-169083596D01*
X84693306Y-169019166D01*
X84654973Y-168992760D01*
X84602762Y-168973920D01*
X84448243Y-168949252D01*
X84448243Y-168881631D01*
X85429679Y-168881631D01*
X85469591Y-168882081D01*
G37*
G36*
X87528549Y-169596344D02*
G01*
X87622423Y-169602131D01*
X87712031Y-169617449D01*
X87797258Y-169641985D01*
X87877344Y-169675277D01*
X87952131Y-169717071D01*
X88020886Y-169766832D01*
X88083347Y-169824305D01*
X88138881Y-169888929D01*
X88187113Y-169960367D01*
X88227536Y-170038110D01*
X88259706Y-170121689D01*
X88283210Y-170210702D01*
X88297597Y-170304548D01*
X88302489Y-170402950D01*
X88301562Y-170447553D01*
X88292327Y-170549050D01*
X88273589Y-170646136D01*
X88245683Y-170738736D01*
X88209183Y-170825803D01*
X88112775Y-170980722D01*
X87989756Y-171105964D01*
X87845695Y-171198006D01*
X87685510Y-171254544D01*
X87513059Y-171273804D01*
X87495608Y-171273623D01*
X87405471Y-171266757D01*
X87319167Y-171250279D01*
X87236125Y-171224260D01*
X87157874Y-171189307D01*
X87084009Y-171145314D01*
X87015944Y-171093125D01*
X86953634Y-171032679D01*
X86898141Y-170964876D01*
X86849790Y-170889966D01*
X86809227Y-170808642D01*
X86776987Y-170721617D01*
X86753424Y-170629195D01*
X86739064Y-170532521D01*
X86734176Y-170431487D01*
X86734555Y-170402250D01*
X86742046Y-170300455D01*
X86749674Y-170256541D01*
X87054291Y-170256541D01*
X87054297Y-170261343D01*
X87059711Y-170392406D01*
X87074908Y-170520863D01*
X87130486Y-170755107D01*
X87210781Y-170945779D01*
X87245735Y-171002906D01*
X87288357Y-171054428D01*
X87336496Y-171097492D01*
X87442858Y-171155151D01*
X87555710Y-171174388D01*
X87629547Y-171167826D01*
X87687086Y-171152250D01*
X87740045Y-171127727D01*
X87789862Y-171093159D01*
X87834397Y-171049503D01*
X87875797Y-170993316D01*
X87910763Y-170927419D01*
X87940835Y-170846362D01*
X87962972Y-170754883D01*
X87977468Y-170646848D01*
X87982374Y-170527956D01*
X87978703Y-170417733D01*
X87944859Y-170191326D01*
X87882077Y-170007426D01*
X87798641Y-169868390D01*
X87701125Y-169772170D01*
X87592838Y-169715200D01*
X87534737Y-169700772D01*
X87473820Y-169695875D01*
X87420601Y-169699204D01*
X87360370Y-169711857D01*
X87304715Y-169733581D01*
X87252512Y-169764989D01*
X87205735Y-169805155D01*
X87162852Y-169856188D01*
X87126593Y-169915878D01*
X87096051Y-169987249D01*
X87073562Y-170067030D01*
X87059181Y-170157898D01*
X87054291Y-170256541D01*
X86749674Y-170256541D01*
X86758836Y-170203790D01*
X86818149Y-170028914D01*
X86908618Y-169880357D01*
X87026738Y-169760432D01*
X87095184Y-169711919D01*
X87169575Y-169671358D01*
X87249526Y-169639143D01*
X87334719Y-169615641D01*
X87425093Y-169601203D01*
X87520039Y-169596305D01*
X87528549Y-169596344D01*
G37*
G36*
X90314216Y-169636009D02*
G01*
X90314216Y-169689361D01*
X90403752Y-169713672D01*
X90452749Y-169744320D01*
X90470591Y-169793683D01*
X90470706Y-169799478D01*
X90451494Y-169914340D01*
X90410219Y-170033825D01*
X90090260Y-170822169D01*
X89791548Y-170026691D01*
X89738622Y-169878033D01*
X89731062Y-169817314D01*
X89736800Y-169775377D01*
X89757116Y-169744194D01*
X89822022Y-169712354D01*
X89937337Y-169689361D01*
X89937337Y-169636009D01*
X89215528Y-169636009D01*
X89215528Y-169689361D01*
X89287476Y-169703114D01*
X89342538Y-169730752D01*
X89400624Y-169799959D01*
X89460887Y-169934410D01*
X89487686Y-170009301D01*
X89531921Y-170133241D01*
X89208394Y-170839850D01*
X88856330Y-169913162D01*
X88840280Y-169859898D01*
X88834927Y-169806634D01*
X88834927Y-169806612D01*
X88840288Y-169766227D01*
X88857959Y-169735866D01*
X88915533Y-169704633D01*
X88998552Y-169689361D01*
X88998552Y-169636009D01*
X88358478Y-169636009D01*
X88358478Y-169689361D01*
X88406597Y-169699764D01*
X88445623Y-169726662D01*
X88500766Y-169812158D01*
X88546917Y-169913162D01*
X89026934Y-171127395D01*
X89073095Y-171232342D01*
X89107652Y-171279419D01*
X89119525Y-171283730D01*
X89145670Y-171263233D01*
X89208394Y-171145231D01*
X89606676Y-170293143D01*
X89930203Y-171130962D01*
X89983555Y-171258003D01*
X89999210Y-171278856D01*
X90015504Y-171283730D01*
X90031966Y-171277846D01*
X90049453Y-171256509D01*
X90115075Y-171109714D01*
X90605793Y-169881213D01*
X90676070Y-169738701D01*
X90707842Y-169708891D01*
X90751581Y-169689361D01*
X90751581Y-169636009D01*
X90314216Y-169636009D01*
G37*
G36*
X90802763Y-171234100D02*
G01*
X91641977Y-171234100D01*
X91641977Y-171180902D01*
X91518506Y-171168600D01*
X91439880Y-171139875D01*
X91414598Y-171116853D01*
X91396678Y-171086518D01*
X91377764Y-170994025D01*
X91375215Y-170935543D01*
X91375215Y-168812614D01*
X91361102Y-168805479D01*
X91105002Y-168882387D01*
X90795628Y-168961969D01*
X90795628Y-169018889D01*
X90817031Y-169018889D01*
X90927148Y-169011755D01*
X90981855Y-169017126D01*
X91022501Y-169034876D01*
X91059334Y-169086760D01*
X91075672Y-169187668D01*
X91076504Y-169228576D01*
X91076504Y-170924842D01*
X91069055Y-171017184D01*
X91047526Y-171084547D01*
X91025367Y-171115197D01*
X90995085Y-171138900D01*
X90905541Y-171169203D01*
X90802763Y-171180902D01*
X90802763Y-171234100D01*
G37*
G36*
X92611644Y-169599323D02*
G01*
X92690021Y-169611739D01*
X92764302Y-169633379D01*
X92896548Y-169701865D01*
X93002929Y-169799943D01*
X93025724Y-169830850D01*
X93065122Y-169895069D01*
X93096193Y-169964887D01*
X93130340Y-170088281D01*
X93155852Y-170251423D01*
X92060577Y-170251423D01*
X92062409Y-170297671D01*
X92087116Y-170517861D01*
X92115543Y-170621984D01*
X92156735Y-170721978D01*
X92247706Y-170860746D01*
X92350555Y-170952674D01*
X92408574Y-170985169D01*
X92470998Y-171008648D01*
X92540780Y-171023488D01*
X92615349Y-171028445D01*
X92761823Y-171011234D01*
X92826850Y-170989428D01*
X92888600Y-170958082D01*
X92953199Y-170912330D01*
X93015878Y-170853837D01*
X93090940Y-170764595D01*
X93166553Y-170654202D01*
X93223473Y-170679172D01*
X93170103Y-170799563D01*
X93062554Y-170972270D01*
X92938166Y-171103691D01*
X92798303Y-171197129D01*
X92722363Y-171230238D01*
X92642599Y-171254145D01*
X92557858Y-171268865D01*
X92469560Y-171273804D01*
X92350021Y-171264502D01*
X92198893Y-171220862D01*
X92131237Y-171186135D01*
X92069281Y-171143175D01*
X92012238Y-171091195D01*
X91961588Y-171031216D01*
X91916304Y-170961279D01*
X91878335Y-170883435D01*
X91847007Y-170794819D01*
X91824096Y-170698393D01*
X91809581Y-170590992D01*
X91804671Y-170475999D01*
X91804806Y-170457084D01*
X91826878Y-170240116D01*
X91857152Y-170137739D01*
X92067711Y-170137739D01*
X92793242Y-170137739D01*
X92774238Y-170031795D01*
X92728271Y-169886669D01*
X92669676Y-169799289D01*
X92631493Y-169768328D01*
X92587170Y-169746142D01*
X92521852Y-169729610D01*
X92444745Y-169724412D01*
X92373182Y-169729787D01*
X92267211Y-169764791D01*
X92221753Y-169795346D01*
X92181937Y-169834610D01*
X92144735Y-169887647D01*
X92114049Y-169951341D01*
X92086789Y-170037400D01*
X92067711Y-170137739D01*
X91857152Y-170137739D01*
X91882536Y-170051897D01*
X91964896Y-169898548D01*
X92067711Y-169781952D01*
X92082966Y-169768595D01*
X92151443Y-169716663D01*
X92224185Y-169673804D01*
X92300682Y-169640174D01*
X92380409Y-169615940D01*
X92463044Y-169601241D01*
X92547883Y-169596305D01*
X92611644Y-169599323D01*
G37*
G36*
X94168462Y-169636009D02*
G01*
X93809264Y-169636009D01*
X93809264Y-169223613D01*
X93803853Y-169187756D01*
X93785832Y-169177418D01*
X93784449Y-169177395D01*
X93625936Y-169397662D01*
X93504405Y-169543636D01*
X93436703Y-169608527D01*
X93374604Y-169653660D01*
X93368331Y-169657412D01*
X93323509Y-169692560D01*
X93307999Y-169725033D01*
X93322113Y-169749848D01*
X93510552Y-169749848D01*
X93510552Y-170821859D01*
X93515508Y-170926793D01*
X93530349Y-171018033D01*
X93551644Y-171087172D01*
X93580590Y-171145520D01*
X93613258Y-171188876D01*
X93652114Y-171223364D01*
X93743700Y-171264519D01*
X93827100Y-171273804D01*
X93897657Y-171268802D01*
X93964025Y-171253640D01*
X94023312Y-171229707D01*
X94079434Y-171196257D01*
X94184957Y-171098098D01*
X94253764Y-171003474D01*
X94207546Y-170964391D01*
X94148276Y-171026483D01*
X94093266Y-171065618D01*
X94051852Y-171081907D01*
X94007960Y-171088589D01*
X93994291Y-171088931D01*
X93946464Y-171083896D01*
X93906383Y-171068502D01*
X93853994Y-171015552D01*
X93821227Y-170921757D01*
X93809264Y-170768507D01*
X93809264Y-169749848D01*
X94168462Y-169749848D01*
X94168462Y-169636009D01*
G37*
G36*
X95190843Y-169636009D02*
G01*
X94831645Y-169636009D01*
X94831645Y-169223613D01*
X94826234Y-169187756D01*
X94808213Y-169177418D01*
X94806830Y-169177395D01*
X94648317Y-169397662D01*
X94526786Y-169543636D01*
X94459084Y-169608527D01*
X94396985Y-169653660D01*
X94390712Y-169657412D01*
X94345890Y-169692560D01*
X94330380Y-169725033D01*
X94344494Y-169749848D01*
X94532933Y-169749848D01*
X94532933Y-170821859D01*
X94537889Y-170926793D01*
X94552730Y-171018033D01*
X94574025Y-171087172D01*
X94602971Y-171145520D01*
X94635639Y-171188876D01*
X94674495Y-171223364D01*
X94766081Y-171264519D01*
X94849481Y-171273804D01*
X94920038Y-171268802D01*
X94986406Y-171253640D01*
X95045693Y-171229707D01*
X95101815Y-171196257D01*
X95207338Y-171098098D01*
X95276145Y-171003474D01*
X95229927Y-170964391D01*
X95170657Y-171026483D01*
X95115647Y-171065618D01*
X95074233Y-171081907D01*
X95030341Y-171088589D01*
X95016672Y-171088931D01*
X94968845Y-171083896D01*
X94928764Y-171068502D01*
X94876375Y-171015552D01*
X94843608Y-170921757D01*
X94831645Y-170768507D01*
X94831645Y-169749848D01*
X95190843Y-169749848D01*
X95190843Y-169636009D01*
G37*
G36*
X97475846Y-168881631D02*
G01*
X96455326Y-168881631D01*
X96455326Y-168949252D01*
X96614616Y-168968243D01*
X96670377Y-168983954D01*
X96712660Y-169006251D01*
X96739448Y-169031846D01*
X96758908Y-169064700D01*
X96780951Y-169162116D01*
X96785987Y-169269056D01*
X96785987Y-170914140D01*
X96780969Y-170998772D01*
X96765699Y-171064043D01*
X96746548Y-171101703D01*
X96720858Y-171128201D01*
X96659184Y-171148436D01*
X96650900Y-171148643D01*
X96619355Y-171143228D01*
X96595038Y-171125176D01*
X96562291Y-171056687D01*
X96554741Y-171031391D01*
X96530002Y-170963159D01*
X96499099Y-170911507D01*
X96469248Y-170881591D01*
X96434544Y-170861755D01*
X96369869Y-170850241D01*
X96293641Y-170868536D01*
X96231185Y-170921406D01*
X96209970Y-170958321D01*
X96197940Y-170999826D01*
X96195698Y-171027824D01*
X96200558Y-171074020D01*
X96214726Y-171116839D01*
X96270062Y-171191934D01*
X96361917Y-171249378D01*
X96489311Y-171280758D01*
X96547762Y-171283730D01*
X96637121Y-171278802D01*
X96719841Y-171264159D01*
X96792615Y-171241255D01*
X96859037Y-171209840D01*
X96917556Y-171171187D01*
X96969779Y-171124789D01*
X97054987Y-171009175D01*
X97114677Y-170859908D01*
X97145573Y-170672196D01*
X97148597Y-170583789D01*
X97148597Y-169269056D01*
X97160306Y-169119602D01*
X97174414Y-169067695D01*
X97196840Y-169028277D01*
X97257401Y-168985207D01*
X97369503Y-168959400D01*
X97475846Y-168949252D01*
X97475846Y-168881631D01*
G37*
G36*
X99245626Y-171060549D02*
G01*
X99227790Y-171060549D01*
X99124662Y-171049702D01*
X99064084Y-171020728D01*
X99035276Y-170965480D01*
X99025082Y-170857531D01*
X99025082Y-169636009D01*
X98463331Y-169636009D01*
X98463331Y-169696496D01*
X98585318Y-169708601D01*
X98663608Y-169735801D01*
X98689662Y-169758078D01*
X98707771Y-169787374D01*
X98725099Y-169873908D01*
X98726371Y-169920917D01*
X98726371Y-170757805D01*
X98720995Y-170836429D01*
X98703216Y-170893781D01*
X98658905Y-170946555D01*
X98595856Y-170991657D01*
X98529962Y-171026689D01*
X98463571Y-171050860D01*
X98396407Y-171064543D01*
X98345924Y-171067683D01*
X98253904Y-171049016D01*
X98173341Y-170994297D01*
X98140747Y-170954496D01*
X98115834Y-170908382D01*
X98099807Y-170857575D01*
X98093488Y-170802817D01*
X98093431Y-170797044D01*
X98093431Y-169636009D01*
X97574331Y-169636009D01*
X97574331Y-169685794D01*
X97655860Y-169694728D01*
X97715774Y-169715579D01*
X97745124Y-169737654D01*
X97766866Y-169767303D01*
X97790764Y-169852546D01*
X97794720Y-169913783D01*
X97794720Y-170811158D01*
X97799605Y-170891248D01*
X97813947Y-170965059D01*
X97836605Y-171030571D01*
X97867383Y-171089231D01*
X97904907Y-171139545D01*
X97949372Y-171182495D01*
X97999770Y-171217329D01*
X98056164Y-171244177D01*
X98186056Y-171272397D01*
X98225106Y-171273804D01*
X98360335Y-171254649D01*
X98494603Y-171196435D01*
X98591283Y-171121036D01*
X98744206Y-170967958D01*
X98744206Y-171263257D01*
X98758475Y-171270392D01*
X98946067Y-171200513D01*
X99124587Y-171144418D01*
X99245626Y-171110334D01*
X99245626Y-171060549D01*
G37*
G36*
X99383039Y-171234100D02*
G01*
X100136952Y-171234100D01*
X100136952Y-171180902D01*
X100045660Y-171170119D01*
X99979480Y-171148983D01*
X99947023Y-171127355D01*
X99924104Y-171099162D01*
X99903453Y-171025344D01*
X99902295Y-170995720D01*
X99902295Y-169994897D01*
X100023276Y-169889054D01*
X100119263Y-169826069D01*
X100172786Y-169804709D01*
X100226436Y-169794140D01*
X100268472Y-169792034D01*
X100328529Y-169797023D01*
X100380613Y-169812100D01*
X100420316Y-169834146D01*
X100453759Y-169864432D01*
X100501499Y-169948807D01*
X100526098Y-170077999D01*
X100528100Y-170137428D01*
X100528100Y-170881725D01*
X100518698Y-171001264D01*
X100495973Y-171084717D01*
X100474544Y-171119403D01*
X100445958Y-171145076D01*
X100368276Y-171173599D01*
X100303989Y-171180902D01*
X100303989Y-171234100D01*
X101043633Y-171234100D01*
X101043633Y-171180902D01*
X100951948Y-171165668D01*
X100889699Y-171138333D01*
X100864629Y-171114225D01*
X100846875Y-171082758D01*
X100828545Y-170987383D01*
X100826811Y-170945779D01*
X100826811Y-170130294D01*
X100821902Y-170031420D01*
X100807392Y-169941551D01*
X100785156Y-169865295D01*
X100754913Y-169797799D01*
X100719268Y-169742443D01*
X100676964Y-169695502D01*
X100630258Y-169658600D01*
X100577822Y-169630002D01*
X100457498Y-169598856D01*
X100407126Y-169596305D01*
X100329552Y-169601751D01*
X100255695Y-169620024D01*
X100127875Y-169686431D01*
X99953621Y-169827275D01*
X99891593Y-169884625D01*
X99891593Y-169603439D01*
X99866623Y-169596305D01*
X99621322Y-169681684D01*
X99375905Y-169756362D01*
X99375905Y-169816849D01*
X99454052Y-169802857D01*
X99471908Y-169802580D01*
X99518367Y-169807910D01*
X99553463Y-169825366D01*
X99587388Y-169879288D01*
X99602906Y-169989751D01*
X99603583Y-170030568D01*
X99603583Y-170913830D01*
X99595828Y-171024720D01*
X99573300Y-171100088D01*
X99552050Y-171129457D01*
X99523377Y-171150996D01*
X99439370Y-171175557D01*
X99383039Y-171180902D01*
X99383039Y-171234100D01*
G37*
G36*
X101991741Y-169599323D02*
G01*
X102070119Y-169611739D01*
X102144400Y-169633379D01*
X102276646Y-169701865D01*
X102383027Y-169799943D01*
X102405822Y-169830850D01*
X102445219Y-169895069D01*
X102476290Y-169964887D01*
X102510438Y-170088281D01*
X102535950Y-170251423D01*
X101440674Y-170251423D01*
X101442507Y-170297671D01*
X101467214Y-170517861D01*
X101495641Y-170621984D01*
X101536833Y-170721978D01*
X101627804Y-170860746D01*
X101730652Y-170952674D01*
X101788671Y-170985169D01*
X101851095Y-171008648D01*
X101920878Y-171023488D01*
X101995446Y-171028445D01*
X102141921Y-171011234D01*
X102206947Y-170989428D01*
X102268698Y-170958082D01*
X102333297Y-170912330D01*
X102395976Y-170853837D01*
X102471038Y-170764595D01*
X102546651Y-170654202D01*
X102603571Y-170679172D01*
X102550201Y-170799563D01*
X102442652Y-170972270D01*
X102318264Y-171103691D01*
X102178401Y-171197129D01*
X102102461Y-171230238D01*
X102022697Y-171254145D01*
X101937956Y-171268865D01*
X101849658Y-171273804D01*
X101730119Y-171264502D01*
X101578991Y-171220862D01*
X101511335Y-171186135D01*
X101449379Y-171143175D01*
X101392336Y-171091195D01*
X101341686Y-171031216D01*
X101296401Y-170961279D01*
X101258432Y-170883435D01*
X101227104Y-170794819D01*
X101204193Y-170698393D01*
X101189678Y-170590992D01*
X101184769Y-170475999D01*
X101184904Y-170457084D01*
X101206975Y-170240116D01*
X101237249Y-170137739D01*
X101447809Y-170137739D01*
X102173339Y-170137739D01*
X102154336Y-170031795D01*
X102108369Y-169886669D01*
X102049774Y-169799289D01*
X102011590Y-169768328D01*
X101967268Y-169746142D01*
X101901950Y-169729610D01*
X101824843Y-169724412D01*
X101753280Y-169729787D01*
X101647309Y-169764791D01*
X101601851Y-169795346D01*
X101562035Y-169834610D01*
X101524832Y-169887647D01*
X101494147Y-169951341D01*
X101466887Y-170037400D01*
X101447809Y-170137739D01*
X101237249Y-170137739D01*
X101262634Y-170051897D01*
X101344994Y-169898548D01*
X101447809Y-169781952D01*
X101463064Y-169768595D01*
X101531541Y-169716663D01*
X101604283Y-169673804D01*
X101680779Y-169640174D01*
X101760507Y-169615940D01*
X101843141Y-169601241D01*
X101927980Y-169596305D01*
X101991741Y-169599323D01*
G37*
G36*
X105251494Y-170747259D02*
G01*
X105205276Y-170729423D01*
X105108644Y-170867089D01*
X105067743Y-170908848D01*
X105026376Y-170936485D01*
X104936789Y-170960142D01*
X104867481Y-170963925D01*
X104017565Y-170963925D01*
X104614987Y-170338586D01*
X104736084Y-170204965D01*
X104837436Y-170077188D01*
X104911333Y-169967844D01*
X104970606Y-169861518D01*
X105012634Y-169765622D01*
X105042963Y-169671075D01*
X105061373Y-169581144D01*
X105069637Y-169491407D01*
X105070189Y-169461218D01*
X105051055Y-169305923D01*
X104995000Y-169163072D01*
X104904401Y-169038048D01*
X104783030Y-168937420D01*
X104712602Y-168898392D01*
X104636639Y-168867796D01*
X104556569Y-168846393D01*
X104472325Y-168834437D01*
X104412279Y-168832000D01*
X104245497Y-168851498D01*
X104165677Y-168875630D01*
X104089615Y-168908989D01*
X104018539Y-168951017D01*
X103952747Y-169001627D01*
X103900313Y-169052544D01*
X103837176Y-169127433D01*
X103785856Y-169208115D01*
X103715577Y-169380635D01*
X103672635Y-169539385D01*
X103747390Y-169557066D01*
X103811260Y-169414617D01*
X103875641Y-169301908D01*
X103925576Y-169235917D01*
X103978650Y-169183930D01*
X104028991Y-169148902D01*
X104083547Y-169123241D01*
X104208978Y-169097163D01*
X104262924Y-169095195D01*
X104342280Y-169100080D01*
X104416157Y-169114417D01*
X104483258Y-169137366D01*
X104544203Y-169168601D01*
X104598129Y-169207288D01*
X104645210Y-169253227D01*
X104717223Y-169365035D01*
X104757316Y-169501775D01*
X104764343Y-169596150D01*
X104744723Y-169770639D01*
X104682489Y-169963869D01*
X104571929Y-170175025D01*
X104407890Y-170400613D01*
X104302007Y-170519891D01*
X103669068Y-171191449D01*
X103669068Y-171234100D01*
X105055920Y-171234100D01*
X105251494Y-170747259D01*
G37*
G36*
X105634422Y-171738311D02*
G01*
X105785939Y-171642389D01*
X105851456Y-171583807D01*
X105908134Y-171519952D01*
X105954593Y-171452808D01*
X105990926Y-171382479D01*
X106015484Y-171313191D01*
X106029438Y-171242718D01*
X106032548Y-171190828D01*
X106013785Y-171075217D01*
X105990904Y-171023202D01*
X105960191Y-170977384D01*
X105922518Y-170938740D01*
X105878769Y-170908265D01*
X105831304Y-170887423D01*
X105779743Y-170876115D01*
X105748106Y-170874281D01*
X105697515Y-170879122D01*
X105652456Y-170893154D01*
X105614359Y-170915176D01*
X105583136Y-170944662D01*
X105559815Y-170980385D01*
X105544656Y-171022027D01*
X105538263Y-171076989D01*
X105543149Y-171121989D01*
X105557498Y-171161193D01*
X105609542Y-171218281D01*
X105693160Y-171249579D01*
X105748106Y-171253952D01*
X105819294Y-171246972D01*
X105844109Y-171244026D01*
X105882552Y-171261398D01*
X105893894Y-171293811D01*
X105874164Y-171385101D01*
X105808972Y-171489713D01*
X105684086Y-171610407D01*
X105602317Y-171670845D01*
X105634422Y-171738311D01*
G37*
G36*
X107535566Y-171234100D02*
G01*
X108517003Y-171234100D01*
X108517003Y-171180902D01*
X108374000Y-171175143D01*
X108276822Y-171154681D01*
X108239394Y-171135020D01*
X108212363Y-171108411D01*
X108185097Y-171038899D01*
X108179207Y-170971215D01*
X108179207Y-168839135D01*
X108150670Y-168832000D01*
X107510596Y-169155527D01*
X107510596Y-169205157D01*
X107673258Y-169147782D01*
X107762354Y-169127122D01*
X107766657Y-169126990D01*
X107802225Y-169131991D01*
X107830185Y-169147147D01*
X107862166Y-169199723D01*
X107873362Y-169294026D01*
X107873362Y-170903749D01*
X107864539Y-171002231D01*
X107842303Y-171074985D01*
X107819841Y-171108757D01*
X107789470Y-171134887D01*
X107704170Y-171166991D01*
X107535566Y-171180902D01*
X107535566Y-171234100D01*
G37*
G36*
X109802805Y-168834691D02*
G01*
X109886753Y-168846854D01*
X109966825Y-168868472D01*
X110044183Y-168899853D01*
X110116912Y-168940264D01*
X110186455Y-168990732D01*
X110250468Y-169049859D01*
X110310160Y-169119204D01*
X110363304Y-169196763D01*
X110410524Y-169284115D01*
X110450134Y-169379058D01*
X110482150Y-169482613D01*
X110505541Y-169592926D01*
X110519957Y-169710075D01*
X110524852Y-169832978D01*
X110514417Y-170014087D01*
X110495167Y-170136729D01*
X110466381Y-170256231D01*
X110381379Y-170483371D01*
X110262524Y-170689906D01*
X110113516Y-170871142D01*
X109938131Y-171023482D01*
X109901785Y-171049089D01*
X109706618Y-171163349D01*
X109601024Y-171207645D01*
X109486628Y-171243716D01*
X109311769Y-171281807D01*
X109102483Y-171311492D01*
X109091782Y-171240303D01*
X109274442Y-171196456D01*
X109381816Y-171157674D01*
X109483975Y-171110333D01*
X109580753Y-171054593D01*
X109671835Y-170990689D01*
X109757433Y-170918412D01*
X109836792Y-170838295D01*
X109910329Y-170749684D01*
X109977018Y-170653508D01*
X110037288Y-170548686D01*
X110090033Y-170436555D01*
X110135538Y-170315718D01*
X110172788Y-170187834D01*
X110154781Y-170201583D01*
X109985178Y-170309810D01*
X109826976Y-170369251D01*
X109735965Y-170385263D01*
X109639419Y-170390387D01*
X109556592Y-170385749D01*
X109477049Y-170371778D01*
X109402455Y-170348831D01*
X109332937Y-170317162D01*
X109269051Y-170277189D01*
X109210432Y-170228622D01*
X109158261Y-170172289D01*
X109112085Y-170107296D01*
X109073312Y-170035031D01*
X109041762Y-169954246D01*
X109018665Y-169866733D01*
X109004242Y-169771312D01*
X108999346Y-169669819D01*
X108999376Y-169661632D01*
X109005122Y-169559089D01*
X109006674Y-169549156D01*
X109326594Y-169549156D01*
X109342322Y-169758657D01*
X109388615Y-169936787D01*
X109457837Y-170069875D01*
X109544655Y-170162369D01*
X109647365Y-170218198D01*
X109705482Y-170232710D01*
X109767527Y-170237619D01*
X109863126Y-170228746D01*
X110007898Y-170182085D01*
X110126570Y-170106254D01*
X110156535Y-170074817D01*
X110174518Y-170032150D01*
X110179923Y-169971478D01*
X110179923Y-169832978D01*
X110176779Y-169693797D01*
X110147849Y-169428139D01*
X110095433Y-169235141D01*
X110025484Y-169099011D01*
X109940275Y-169007012D01*
X109891145Y-168974726D01*
X109837526Y-168951377D01*
X109776510Y-168936528D01*
X109710608Y-168931571D01*
X109649074Y-168936441D01*
X109542307Y-168972852D01*
X109458114Y-169041688D01*
X109398486Y-169149569D01*
X109367995Y-169240736D01*
X109344891Y-169343757D01*
X109326594Y-169549156D01*
X109006674Y-169549156D01*
X109020454Y-169460990D01*
X109044933Y-169367731D01*
X109078050Y-169280048D01*
X109167492Y-169124645D01*
X109283284Y-168999462D01*
X109419984Y-168907657D01*
X109573020Y-168851255D01*
X109654334Y-168836889D01*
X109738990Y-168832000D01*
X109802805Y-168834691D01*
G37*
G36*
X111985219Y-170411015D02*
G01*
X112347830Y-170411015D01*
X112347830Y-170638538D01*
X111985219Y-170638538D01*
X111985219Y-171234100D01*
X111711323Y-171234100D01*
X111711323Y-170638538D01*
X110712206Y-170638538D01*
X110712206Y-170411015D01*
X110854427Y-170411015D01*
X111707756Y-170411015D01*
X111707756Y-169194145D01*
X110854427Y-170411015D01*
X110712206Y-170411015D01*
X111828729Y-168832000D01*
X111985219Y-168832000D01*
X111985219Y-170411015D01*
G37*
G36*
X112865844Y-171234100D02*
G01*
X113847280Y-171234100D01*
X113847280Y-171180902D01*
X113704277Y-171175143D01*
X113607100Y-171154681D01*
X113569671Y-171135020D01*
X113542641Y-171108411D01*
X113515375Y-171038899D01*
X113509485Y-170971215D01*
X113509485Y-168839135D01*
X113480948Y-168832000D01*
X112840874Y-169155527D01*
X112840874Y-169205157D01*
X113003536Y-169147782D01*
X113092632Y-169127122D01*
X113096935Y-169126990D01*
X113132503Y-169131991D01*
X113160463Y-169147147D01*
X113192444Y-169199723D01*
X113203639Y-169294026D01*
X113203639Y-170903749D01*
X113194817Y-171002231D01*
X113172580Y-171074985D01*
X113150118Y-171108757D01*
X113119748Y-171134887D01*
X113034447Y-171166991D01*
X112865844Y-171180902D01*
X112865844Y-171234100D01*
G37*
G36*
X115250107Y-170320905D02*
G01*
X115250107Y-170545016D01*
X116124839Y-170545016D01*
X116124839Y-170320905D01*
X115250107Y-170320905D01*
G37*
G36*
X118499176Y-168881631D02*
G01*
X117478656Y-168881631D01*
X117478656Y-168949252D01*
X117637946Y-168968243D01*
X117693707Y-168983954D01*
X117735990Y-169006251D01*
X117762778Y-169031846D01*
X117782238Y-169064700D01*
X117804281Y-169162116D01*
X117809317Y-169269056D01*
X117809317Y-170914140D01*
X117804299Y-170998772D01*
X117789029Y-171064043D01*
X117769878Y-171101703D01*
X117744188Y-171128201D01*
X117682514Y-171148436D01*
X117674230Y-171148643D01*
X117642685Y-171143228D01*
X117618368Y-171125176D01*
X117585621Y-171056687D01*
X117578072Y-171031391D01*
X117553332Y-170963159D01*
X117522429Y-170911507D01*
X117492578Y-170881591D01*
X117457874Y-170861755D01*
X117393199Y-170850241D01*
X117316972Y-170868536D01*
X117254515Y-170921406D01*
X117233300Y-170958321D01*
X117221270Y-170999826D01*
X117219028Y-171027824D01*
X117223888Y-171074020D01*
X117238056Y-171116839D01*
X117293392Y-171191934D01*
X117385247Y-171249378D01*
X117512641Y-171280758D01*
X117571092Y-171283730D01*
X117660451Y-171278802D01*
X117743171Y-171264159D01*
X117815945Y-171241255D01*
X117882367Y-171209840D01*
X117940886Y-171171187D01*
X117993110Y-171124789D01*
X118078317Y-171009175D01*
X118138007Y-170859908D01*
X118168903Y-170672196D01*
X118171927Y-170583789D01*
X118171927Y-169269056D01*
X118183636Y-169119602D01*
X118197744Y-169067695D01*
X118220170Y-169028277D01*
X118280731Y-168985207D01*
X118392833Y-168959400D01*
X118499176Y-168949252D01*
X118499176Y-168881631D01*
G37*
G36*
X120268956Y-171060549D02*
G01*
X120251120Y-171060549D01*
X120147992Y-171049702D01*
X120087414Y-171020728D01*
X120058606Y-170965480D01*
X120048412Y-170857531D01*
X120048412Y-169636009D01*
X119486661Y-169636009D01*
X119486661Y-169696496D01*
X119608648Y-169708601D01*
X119686938Y-169735801D01*
X119712992Y-169758078D01*
X119731101Y-169787374D01*
X119748429Y-169873908D01*
X119749701Y-169920917D01*
X119749701Y-170757805D01*
X119744325Y-170836429D01*
X119726546Y-170893781D01*
X119682235Y-170946555D01*
X119619186Y-170991657D01*
X119553292Y-171026689D01*
X119486901Y-171050860D01*
X119419738Y-171064543D01*
X119369255Y-171067683D01*
X119277234Y-171049016D01*
X119196671Y-170994297D01*
X119164077Y-170954496D01*
X119139164Y-170908382D01*
X119123137Y-170857575D01*
X119116818Y-170802817D01*
X119116761Y-170797044D01*
X119116761Y-169636009D01*
X118597661Y-169636009D01*
X118597661Y-169685794D01*
X118679191Y-169694728D01*
X118739104Y-169715579D01*
X118768454Y-169737654D01*
X118790196Y-169767303D01*
X118814094Y-169852546D01*
X118818050Y-169913783D01*
X118818050Y-170811158D01*
X118822935Y-170891248D01*
X118837277Y-170965059D01*
X118859935Y-171030571D01*
X118890713Y-171089231D01*
X118928237Y-171139545D01*
X118972702Y-171182495D01*
X119023100Y-171217329D01*
X119079494Y-171244177D01*
X119209386Y-171272397D01*
X119248436Y-171273804D01*
X119383665Y-171254649D01*
X119517933Y-171196435D01*
X119614614Y-171121036D01*
X119767536Y-170967958D01*
X119767536Y-171263257D01*
X119781805Y-171270392D01*
X119969397Y-171200513D01*
X120147917Y-171144418D01*
X120268956Y-171110334D01*
X120268956Y-171060549D01*
G37*
G36*
X120417071Y-171234100D02*
G01*
X121256286Y-171234100D01*
X121256286Y-171180902D01*
X121132815Y-171168600D01*
X121054189Y-171139875D01*
X121028906Y-171116853D01*
X121010987Y-171086518D01*
X120992072Y-170994025D01*
X120989524Y-170935543D01*
X120989524Y-168812614D01*
X120975410Y-168805479D01*
X120719311Y-168882387D01*
X120409937Y-168961969D01*
X120409937Y-169018889D01*
X120431340Y-169018889D01*
X120541457Y-169011755D01*
X120596163Y-169017126D01*
X120636810Y-169034876D01*
X120673642Y-169086760D01*
X120689981Y-169187668D01*
X120690812Y-169228576D01*
X120690812Y-170924842D01*
X120683363Y-171017184D01*
X120661835Y-171084547D01*
X120639675Y-171115197D01*
X120609394Y-171138900D01*
X120519850Y-171169203D01*
X120417071Y-171180902D01*
X120417071Y-171234100D01*
G37*
G36*
X122927271Y-169636009D02*
G01*
X122447254Y-169636009D01*
X122447254Y-169689361D01*
X122515960Y-169694237D01*
X122567041Y-169708517D01*
X122595407Y-169726521D01*
X122612342Y-169750025D01*
X122617858Y-169778230D01*
X122603744Y-169838562D01*
X122258815Y-170819067D01*
X121849831Y-169920296D01*
X121824105Y-169847538D01*
X121814315Y-169785365D01*
X121819530Y-169755115D01*
X121836186Y-169731416D01*
X121897204Y-169703681D01*
X122020590Y-169689361D01*
X122020590Y-169636009D01*
X121287925Y-169636009D01*
X121287925Y-169685794D01*
X121348341Y-169700079D01*
X121397916Y-169722459D01*
X121433302Y-169749301D01*
X121459962Y-169782281D01*
X121469385Y-169799633D01*
X121874801Y-170673434D01*
X121928713Y-170788630D01*
X121938700Y-170808366D01*
X122024032Y-170970444D01*
X122077272Y-171094037D01*
X122095190Y-171170666D01*
X122077711Y-171251919D01*
X121992906Y-171473425D01*
X121952969Y-171554369D01*
X121867235Y-171661691D01*
X121824420Y-171694221D01*
X121785167Y-171709718D01*
X121775231Y-171710549D01*
X121736846Y-171705138D01*
X121685717Y-171687117D01*
X121682640Y-171685734D01*
X121604648Y-171660831D01*
X121529493Y-171648044D01*
X121497767Y-171646650D01*
X121424359Y-171665092D01*
X121369006Y-171717197D01*
X121352454Y-171753014D01*
X121345099Y-171793720D01*
X121344845Y-171803140D01*
X121363703Y-171883310D01*
X121418614Y-171949787D01*
X121507931Y-171995250D01*
X121608039Y-172009260D01*
X121672856Y-172004201D01*
X121734219Y-171988637D01*
X121788745Y-171964170D01*
X121841135Y-171929610D01*
X121943819Y-171824969D01*
X122052676Y-171653573D01*
X122178823Y-171376246D01*
X122209029Y-171298619D01*
X122756667Y-169849263D01*
X122793481Y-169773407D01*
X122833438Y-169725293D01*
X122902044Y-169693577D01*
X122927271Y-169689361D01*
X122927271Y-169636009D01*
G37*
G36*
X125219098Y-170411015D02*
G01*
X125581708Y-170411015D01*
X125581708Y-170638538D01*
X125219098Y-170638538D01*
X125219098Y-171234100D01*
X124945201Y-171234100D01*
X124945201Y-170638538D01*
X123946085Y-170638538D01*
X123946085Y-170411015D01*
X124088306Y-170411015D01*
X124941634Y-170411015D01*
X124941634Y-169194145D01*
X124088306Y-170411015D01*
X123946085Y-170411015D01*
X125062608Y-168832000D01*
X125219098Y-168832000D01*
X125219098Y-170411015D01*
G37*
G36*
X125975337Y-171738311D02*
G01*
X126126855Y-171642389D01*
X126192371Y-171583807D01*
X126249049Y-171519952D01*
X126295508Y-171452808D01*
X126331841Y-171382479D01*
X126356399Y-171313191D01*
X126370354Y-171242718D01*
X126373464Y-171190828D01*
X126354701Y-171075217D01*
X126331820Y-171023202D01*
X126301107Y-170977384D01*
X126263434Y-170938740D01*
X126219685Y-170908265D01*
X126172219Y-170887423D01*
X126120659Y-170876115D01*
X126089021Y-170874281D01*
X126038431Y-170879122D01*
X125993371Y-170893154D01*
X125955274Y-170915176D01*
X125924052Y-170944662D01*
X125900730Y-170980385D01*
X125885572Y-171022027D01*
X125879179Y-171076989D01*
X125884065Y-171121989D01*
X125898414Y-171161193D01*
X125950457Y-171218281D01*
X126034075Y-171249579D01*
X126089021Y-171253952D01*
X126160210Y-171246972D01*
X126185025Y-171244026D01*
X126223467Y-171261398D01*
X126234810Y-171293811D01*
X126215080Y-171385101D01*
X126149887Y-171489713D01*
X126025001Y-171610407D01*
X125943233Y-171670845D01*
X125975337Y-171738311D01*
G37*
G36*
X129145928Y-170747259D02*
G01*
X129099710Y-170729423D01*
X129003078Y-170867089D01*
X128962177Y-170908848D01*
X128920810Y-170936485D01*
X128831223Y-170960142D01*
X128761915Y-170963925D01*
X127911999Y-170963925D01*
X128509421Y-170338586D01*
X128630518Y-170204965D01*
X128731870Y-170077188D01*
X128805767Y-169967844D01*
X128865040Y-169861518D01*
X128907068Y-169765622D01*
X128937397Y-169671075D01*
X128955807Y-169581144D01*
X128964071Y-169491407D01*
X128964623Y-169461218D01*
X128945489Y-169305923D01*
X128889434Y-169163072D01*
X128798835Y-169038048D01*
X128677464Y-168937420D01*
X128607036Y-168898392D01*
X128531073Y-168867796D01*
X128451004Y-168846393D01*
X128366759Y-168834437D01*
X128306713Y-168832000D01*
X128139932Y-168851498D01*
X128060111Y-168875630D01*
X127984049Y-168908989D01*
X127912973Y-168951017D01*
X127847181Y-169001627D01*
X127794747Y-169052544D01*
X127731610Y-169127433D01*
X127680290Y-169208115D01*
X127610011Y-169380635D01*
X127567069Y-169539385D01*
X127641824Y-169557066D01*
X127705694Y-169414617D01*
X127770075Y-169301908D01*
X127820011Y-169235917D01*
X127873084Y-169183930D01*
X127923425Y-169148902D01*
X127977981Y-169123241D01*
X128103412Y-169097163D01*
X128157358Y-169095195D01*
X128236714Y-169100080D01*
X128310591Y-169114417D01*
X128377692Y-169137366D01*
X128438637Y-169168601D01*
X128492563Y-169207288D01*
X128539644Y-169253227D01*
X128611657Y-169365035D01*
X128651750Y-169501775D01*
X128658777Y-169596150D01*
X128639157Y-169770639D01*
X128576923Y-169963869D01*
X128466363Y-170175025D01*
X128302324Y-170400613D01*
X128196441Y-170519891D01*
X127563502Y-171191449D01*
X127563502Y-171234100D01*
X128950354Y-171234100D01*
X129145928Y-170747259D01*
G37*
G36*
X130243346Y-168841049D02*
G01*
X130319561Y-168859429D01*
X130392326Y-168887378D01*
X130463879Y-168926098D01*
X130531245Y-168974375D01*
X130596992Y-169034727D01*
X130657607Y-169104718D01*
X130715220Y-169187794D01*
X130766589Y-169280470D01*
X130812941Y-169386247D01*
X130851869Y-169501295D01*
X130883676Y-169628202D01*
X130906932Y-169763688D01*
X130921358Y-169908774D01*
X130926255Y-170061432D01*
X130912980Y-170295291D01*
X130862870Y-170566308D01*
X130784265Y-170796552D01*
X130688491Y-170974316D01*
X130584892Y-171099012D01*
X130569342Y-171113701D01*
X130439909Y-171206950D01*
X130368752Y-171239996D01*
X130293586Y-171263742D01*
X130210370Y-171278750D01*
X130122556Y-171283730D01*
X130022482Y-171276802D01*
X129942433Y-171260564D01*
X129866087Y-171235052D01*
X129793513Y-171200308D01*
X129725487Y-171156660D01*
X129661729Y-171103694D01*
X129603456Y-171042093D01*
X129587709Y-171022535D01*
X129533315Y-170941505D01*
X129483666Y-170846296D01*
X129435864Y-170729399D01*
X129395162Y-170601050D01*
X129337963Y-170319188D01*
X129321183Y-170072134D01*
X129660376Y-170072134D01*
X129669083Y-170354328D01*
X129705332Y-170655630D01*
X129761976Y-170870413D01*
X129832775Y-171018105D01*
X129914777Y-171114811D01*
X130009367Y-171171490D01*
X130064008Y-171186337D01*
X130122556Y-171191293D01*
X130154728Y-171189842D01*
X130260550Y-171160892D01*
X130310098Y-171130962D01*
X130355586Y-171090922D01*
X130400880Y-171035296D01*
X130441239Y-170967539D01*
X130480592Y-170877215D01*
X130513697Y-170771761D01*
X130543360Y-170635585D01*
X130565102Y-170480542D01*
X130579937Y-170286107D01*
X130584892Y-170068567D01*
X130575542Y-169776939D01*
X130538086Y-169471166D01*
X130480125Y-169251311D01*
X130408445Y-169099940D01*
X130326690Y-169001412D01*
X130234283Y-168944316D01*
X130181935Y-168929539D01*
X130126124Y-168924592D01*
X130089711Y-168926511D01*
X130035595Y-168937210D01*
X129985026Y-168957265D01*
X129935609Y-168988475D01*
X129890179Y-169029986D01*
X129844782Y-169087583D01*
X129804288Y-169157566D01*
X129764812Y-169250549D01*
X129731574Y-169358904D01*
X129701884Y-169498009D01*
X129680106Y-169656077D01*
X129665323Y-169852674D01*
X129660376Y-170072134D01*
X129321183Y-170072134D01*
X129319013Y-170040184D01*
X129330839Y-169825830D01*
X129379894Y-169557162D01*
X129458569Y-169325691D01*
X129555318Y-169144956D01*
X129660376Y-169016873D01*
X129677777Y-169000454D01*
X129805546Y-168908400D01*
X129876332Y-168875781D01*
X129951767Y-168852412D01*
X130040688Y-168837033D01*
X130136825Y-168832000D01*
X130243346Y-168841049D01*
G37*
G36*
X132699447Y-170747259D02*
G01*
X132653229Y-170729423D01*
X132556597Y-170867089D01*
X132515695Y-170908848D01*
X132474328Y-170936485D01*
X132384741Y-170960142D01*
X132315433Y-170963925D01*
X131465517Y-170963925D01*
X132062940Y-170338586D01*
X132184037Y-170204965D01*
X132285388Y-170077188D01*
X132359285Y-169967844D01*
X132418559Y-169861518D01*
X132460586Y-169765622D01*
X132490916Y-169671075D01*
X132509326Y-169581144D01*
X132517590Y-169491407D01*
X132518141Y-169461218D01*
X132499007Y-169305923D01*
X132442952Y-169163072D01*
X132352353Y-169038048D01*
X132230982Y-168937420D01*
X132160555Y-168898392D01*
X132084591Y-168867796D01*
X132004522Y-168846393D01*
X131920278Y-168834437D01*
X131860232Y-168832000D01*
X131693450Y-168851498D01*
X131613630Y-168875630D01*
X131537567Y-168908989D01*
X131466491Y-168951017D01*
X131400700Y-169001627D01*
X131348266Y-169052544D01*
X131285129Y-169127433D01*
X131233808Y-169208115D01*
X131163530Y-169380635D01*
X131120588Y-169539385D01*
X131195343Y-169557066D01*
X131259212Y-169414617D01*
X131323593Y-169301908D01*
X131373529Y-169235917D01*
X131426602Y-169183930D01*
X131476944Y-169148902D01*
X131531500Y-169123241D01*
X131656931Y-169097163D01*
X131710876Y-169095195D01*
X131790232Y-169100080D01*
X131864109Y-169114417D01*
X131931210Y-169137366D01*
X131992156Y-169168601D01*
X132046081Y-169207288D01*
X132093163Y-169253227D01*
X132165175Y-169365035D01*
X132205268Y-169501775D01*
X132212296Y-169596150D01*
X132192676Y-169770639D01*
X132130442Y-169963869D01*
X132019882Y-170175025D01*
X131855842Y-170400613D01*
X131749960Y-170519891D01*
X131117020Y-171191449D01*
X131117020Y-171234100D01*
X132503873Y-171234100D01*
X132699447Y-170747259D01*
G37*
G36*
X134102894Y-170411015D02*
G01*
X134465504Y-170411015D01*
X134465504Y-170638538D01*
X134102894Y-170638538D01*
X134102894Y-171234100D01*
X133828998Y-171234100D01*
X133828998Y-170638538D01*
X132829881Y-170638538D01*
X132829881Y-170411015D01*
X132972102Y-170411015D01*
X133825431Y-170411015D01*
X133825431Y-169194145D01*
X132972102Y-170411015D01*
X132829881Y-170411015D01*
X133946404Y-168832000D01*
X134102894Y-168832000D01*
X134102894Y-170411015D01*
G37*
D11*
%TA.AperFunction,EtchedComponent*%
%TO.C,Thomas Marshall Rowlett June 2\u002C 1941 - July 4\u002C 2024*%
G36*
X71585667Y-156040667D02*
G01*
X71585667Y-165227000D01*
X62399333Y-165227000D01*
X53213000Y-165227000D01*
X53213000Y-162433000D01*
X56007000Y-162433000D01*
X62399333Y-162433000D01*
X68791667Y-162433000D01*
X68791667Y-156040667D01*
X68791667Y-149648333D01*
X62399333Y-149648333D01*
X56007000Y-149648333D01*
X56007000Y-156040667D01*
X56007000Y-162433000D01*
X53213000Y-162433000D01*
X53213000Y-156040667D01*
X53213000Y-146854333D01*
X62399333Y-146854333D01*
X71585667Y-146854333D01*
X71585667Y-156040667D01*
G37*
%TD.AperFunction*%
%TA.AperFunction,EtchedComponent*%
G36*
X100457000Y-135043333D02*
G01*
X100457000Y-136355667D01*
X101769333Y-136355667D01*
X103081667Y-136355667D01*
X103081667Y-137668000D01*
X103081667Y-138980333D01*
X104394000Y-138980333D01*
X105706333Y-138980333D01*
X105706333Y-141605000D01*
X105706333Y-144229667D01*
X107018667Y-144229667D01*
X108331000Y-144229667D01*
X108331000Y-142917333D01*
X108331000Y-141605000D01*
X109643333Y-141605000D01*
X110955667Y-141605000D01*
X110955667Y-142917333D01*
X110955667Y-144229667D01*
X113580333Y-144229667D01*
X116205000Y-144229667D01*
X116205000Y-142917333D01*
X116205000Y-141605000D01*
X117517333Y-141605000D01*
X118829667Y-141605000D01*
X118829667Y-140292667D01*
X118829667Y-138980333D01*
X120142000Y-138980333D01*
X121454333Y-138980333D01*
X121454333Y-140292667D01*
X121454333Y-141605000D01*
X125391333Y-141605000D01*
X129328333Y-141605000D01*
X129328333Y-142917333D01*
X129328333Y-144229667D01*
X130640667Y-144229667D01*
X131953000Y-144229667D01*
X131953000Y-145542000D01*
X131953000Y-146854333D01*
X133265333Y-146854333D01*
X134577667Y-146854333D01*
X134577667Y-149479000D01*
X134577667Y-152103667D01*
X135890000Y-152103667D01*
X137202333Y-152103667D01*
X137202333Y-150791333D01*
X137202333Y-149479000D01*
X138514667Y-149479000D01*
X139827000Y-149479000D01*
X139827000Y-154728333D01*
X139827000Y-159977667D01*
X137202333Y-159977667D01*
X134577667Y-159977667D01*
X134577667Y-161290000D01*
X134577667Y-162602333D01*
X133265333Y-162602333D01*
X131953000Y-162602333D01*
X131953000Y-158665333D01*
X131953000Y-154728333D01*
X133265333Y-154728333D01*
X134577667Y-154728333D01*
X134577667Y-153416000D01*
X134577667Y-152103667D01*
X131953000Y-152103667D01*
X129328333Y-152103667D01*
X129328333Y-156040667D01*
X129328333Y-159977667D01*
X128016000Y-159977667D01*
X126703667Y-159977667D01*
X126703667Y-162602333D01*
X126703667Y-165227000D01*
X125391333Y-165227000D01*
X124079000Y-165227000D01*
X124079000Y-162602333D01*
X124079000Y-159977667D01*
X125391333Y-159977667D01*
X126703667Y-159977667D01*
X126703667Y-158665333D01*
X126703667Y-157353000D01*
X125391333Y-157353000D01*
X124079000Y-157353000D01*
X124079000Y-156040667D01*
X124079000Y-154728333D01*
X122766667Y-154728333D01*
X121454333Y-154728333D01*
X121454333Y-156040667D01*
X121454333Y-157353000D01*
X120142000Y-157353000D01*
X118829667Y-157353000D01*
X118829667Y-158665333D01*
X118829667Y-159977667D01*
X114892667Y-159977667D01*
X110955667Y-159977667D01*
X110955667Y-157353000D01*
X110955667Y-154728333D01*
X112268000Y-154728333D01*
X113580333Y-154728333D01*
X113580333Y-156040667D01*
X113580333Y-157353000D01*
X116205000Y-157353000D01*
X118829667Y-157353000D01*
X118829667Y-156040667D01*
X118829667Y-154728333D01*
X117517333Y-154728333D01*
X116205000Y-154728333D01*
X116205000Y-153416000D01*
X116205000Y-152103667D01*
X118829667Y-152103667D01*
X122766667Y-152103667D01*
X126703667Y-152103667D01*
X126703667Y-148166667D01*
X126703667Y-144229667D01*
X122766667Y-144229667D01*
X118829667Y-144229667D01*
X118829667Y-148166667D01*
X118829667Y-152103667D01*
X116205000Y-152103667D01*
X113580333Y-152103667D01*
X110955667Y-152103667D01*
X110955667Y-150791333D01*
X110955667Y-149479000D01*
X112268000Y-149479000D01*
X113580333Y-149479000D01*
X113580333Y-148166667D01*
X113580333Y-146854333D01*
X112268000Y-146854333D01*
X110955667Y-146854333D01*
X110955667Y-145542000D01*
X110955667Y-144229667D01*
X109643333Y-144229667D01*
X108331000Y-144229667D01*
X108331000Y-146854333D01*
X108331000Y-149479000D01*
X107018667Y-149479000D01*
X105706333Y-149479000D01*
X105706333Y-150791333D01*
X105706333Y-152103667D01*
X107018667Y-152103667D01*
X108331000Y-152103667D01*
X108331000Y-153416000D01*
X108331000Y-154728333D01*
X107018667Y-154728333D01*
X105706333Y-154728333D01*
X105706333Y-156040667D01*
X105706333Y-157353000D01*
X107018667Y-157353000D01*
X108331000Y-157353000D01*
X108331000Y-158665333D01*
X108331000Y-159977667D01*
X105706333Y-159977667D01*
X103081667Y-159977667D01*
X103081667Y-161290000D01*
X103081667Y-162602333D01*
X101769333Y-162602333D01*
X100457000Y-162602333D01*
X100457000Y-163914667D01*
X100457000Y-165227000D01*
X95207667Y-165227000D01*
X89958333Y-165227000D01*
X89958333Y-163914667D01*
X89958333Y-162602333D01*
X88646000Y-162602333D01*
X87333667Y-162602333D01*
X87333667Y-163914667D01*
X87333667Y-165227000D01*
X80772000Y-165227000D01*
X74210333Y-165227000D01*
X74210333Y-163914667D01*
X74210333Y-162602333D01*
X76835000Y-162602333D01*
X79459667Y-162602333D01*
X79459667Y-159977667D01*
X79459667Y-157353000D01*
X78147333Y-157353000D01*
X76835000Y-157353000D01*
X76835000Y-154728333D01*
X76835000Y-152103667D01*
X78147333Y-152103667D01*
X79459667Y-152103667D01*
X79459667Y-150791333D01*
X79459667Y-149479000D01*
X80772000Y-149479000D01*
X82084333Y-149479000D01*
X82084333Y-156040667D01*
X82084333Y-162602333D01*
X84709000Y-162602333D01*
X87333667Y-162602333D01*
X87333667Y-161290000D01*
X87333667Y-159977667D01*
X88646000Y-159977667D01*
X89958333Y-159977667D01*
X89958333Y-158665333D01*
X89958333Y-157353000D01*
X92583000Y-157353000D01*
X95207667Y-157353000D01*
X95207667Y-158665333D01*
X95207667Y-159977667D01*
X93895333Y-159977667D01*
X92583000Y-159977667D01*
X92583000Y-161290000D01*
X92583000Y-162602333D01*
X96520000Y-162602333D01*
X100457000Y-162602333D01*
X100457000Y-159977667D01*
X100457000Y-157353000D01*
X99144667Y-157353000D01*
X97832333Y-157353000D01*
X97832333Y-156040667D01*
X97832333Y-154728333D01*
X100457000Y-154728333D01*
X103081667Y-154728333D01*
X103081667Y-153416000D01*
X103081667Y-152103667D01*
X100457000Y-152103667D01*
X97832333Y-152103667D01*
X97832333Y-153416000D01*
X97832333Y-154728333D01*
X92583000Y-154728333D01*
X87333667Y-154728333D01*
X87333667Y-153416000D01*
X87333667Y-152103667D01*
X89958333Y-152103667D01*
X93895333Y-152103667D01*
X97832333Y-152103667D01*
X97832333Y-150791333D01*
X97832333Y-149479000D01*
X100457000Y-149479000D01*
X103081667Y-149479000D01*
X105706333Y-149479000D01*
X105706333Y-148166667D01*
X105706333Y-146854333D01*
X103081667Y-146854333D01*
X100457000Y-146854333D01*
X100457000Y-148166667D01*
X100457000Y-149479000D01*
X97832333Y-149479000D01*
X93895333Y-149479000D01*
X89958333Y-149479000D01*
X89958333Y-150791333D01*
X89958333Y-152103667D01*
X87333667Y-152103667D01*
X86021333Y-152103667D01*
X84709000Y-152103667D01*
X84709000Y-150791333D01*
X84709000Y-149479000D01*
X86021333Y-149479000D01*
X87333667Y-149479000D01*
X87333667Y-148166667D01*
X87333667Y-146854333D01*
X89958333Y-146854333D01*
X92583000Y-146854333D01*
X92583000Y-145542000D01*
X92583000Y-144229667D01*
X93895333Y-144229667D01*
X95207667Y-144229667D01*
X100457000Y-144229667D01*
X101769333Y-144229667D01*
X103081667Y-144229667D01*
X103081667Y-142917333D01*
X103081667Y-141605000D01*
X101769333Y-141605000D01*
X100457000Y-141605000D01*
X100457000Y-142917333D01*
X100457000Y-144229667D01*
X95207667Y-144229667D01*
X95207667Y-142917333D01*
X95207667Y-141605000D01*
X97832333Y-141605000D01*
X99144667Y-141605000D01*
X100457000Y-141605000D01*
X100457000Y-140292667D01*
X100457000Y-138980333D01*
X99144667Y-138980333D01*
X97832333Y-138980333D01*
X97832333Y-140292667D01*
X97832333Y-141605000D01*
X95207667Y-141605000D01*
X91270667Y-141605000D01*
X87333667Y-141605000D01*
X87333667Y-140292667D01*
X87333667Y-138980333D01*
X92583000Y-138980333D01*
X97832333Y-138980333D01*
X97832333Y-136355667D01*
X97832333Y-133731000D01*
X99144667Y-133731000D01*
X100457000Y-133731000D01*
X100457000Y-135043333D01*
G37*
%TD.AperFunction*%
%TA.AperFunction,EtchedComponent*%
G36*
X121454333Y-162602333D02*
G01*
X121454333Y-165227000D01*
X116205000Y-165227000D01*
X110955667Y-165227000D01*
X110955667Y-163914667D01*
X110955667Y-162602333D01*
X114892667Y-162602333D01*
X118829667Y-162602333D01*
X118829667Y-161290000D01*
X118829667Y-159977667D01*
X120142000Y-159977667D01*
X121454333Y-159977667D01*
X121454333Y-162602333D01*
G37*
%TD.AperFunction*%
%TA.AperFunction,EtchedComponent*%
G36*
X137202333Y-163914667D02*
G01*
X137202333Y-165227000D01*
X135890000Y-165227000D01*
X134577667Y-165227000D01*
X134577667Y-163914667D01*
X134577667Y-162602333D01*
X135890000Y-162602333D01*
X137202333Y-162602333D01*
X137202333Y-163914667D01*
G37*
%TD.AperFunction*%
%TA.AperFunction,EtchedComponent*%
G36*
X79459667Y-148166667D02*
G01*
X79459667Y-149479000D01*
X78147333Y-149479000D01*
X76835000Y-149479000D01*
X76835000Y-148166667D01*
X76835000Y-146854333D01*
X78147333Y-146854333D01*
X79459667Y-146854333D01*
X79459667Y-148166667D01*
G37*
%TD.AperFunction*%
%TA.AperFunction,EtchedComponent*%
G36*
X76835000Y-145542000D02*
G01*
X76835000Y-146854333D01*
X75522667Y-146854333D01*
X74210333Y-146854333D01*
X74210333Y-145542000D01*
X74210333Y-144229667D01*
X75522667Y-144229667D01*
X76835000Y-144229667D01*
X76835000Y-145542000D01*
G37*
%TD.AperFunction*%
%TA.AperFunction,EtchedComponent*%
G36*
X139827000Y-119295333D02*
G01*
X139827000Y-120607667D01*
X138514667Y-120607667D01*
X137202333Y-120607667D01*
X137202333Y-121920000D01*
X137202333Y-123232333D01*
X138514667Y-123232333D01*
X139827000Y-123232333D01*
X139827000Y-125857000D01*
X139827000Y-128481667D01*
X137202333Y-128481667D01*
X134577667Y-128481667D01*
X134577667Y-129794000D01*
X134577667Y-131106333D01*
X131953000Y-131106333D01*
X129328333Y-131106333D01*
X129328333Y-132418667D01*
X129328333Y-133731000D01*
X134577667Y-133731000D01*
X139827000Y-133731000D01*
X139827000Y-135043333D01*
X139827000Y-136355667D01*
X138514667Y-136355667D01*
X137202333Y-136355667D01*
X137202333Y-137668000D01*
X137202333Y-138980333D01*
X138514667Y-138980333D01*
X139827000Y-138980333D01*
X139827000Y-142917333D01*
X139827000Y-146854333D01*
X138514667Y-146854333D01*
X137202333Y-146854333D01*
X137202333Y-145542000D01*
X137202333Y-144229667D01*
X135890000Y-144229667D01*
X134577667Y-144229667D01*
X134577667Y-142917333D01*
X134577667Y-141605000D01*
X133265333Y-141605000D01*
X131953000Y-141605000D01*
X131953000Y-138980333D01*
X131953000Y-136355667D01*
X129328333Y-136355667D01*
X126703667Y-136355667D01*
X126703667Y-137668000D01*
X126703667Y-138980333D01*
X125391333Y-138980333D01*
X124079000Y-138980333D01*
X124079000Y-137668000D01*
X124079000Y-136355667D01*
X125391333Y-136355667D01*
X126703667Y-136355667D01*
X126703667Y-135043333D01*
X126703667Y-133731000D01*
X125391333Y-133731000D01*
X124079000Y-133731000D01*
X124079000Y-132418667D01*
X124079000Y-131106333D01*
X122766667Y-131106333D01*
X121454333Y-131106333D01*
X121454333Y-133731000D01*
X121454333Y-136355667D01*
X120142000Y-136355667D01*
X118829667Y-136355667D01*
X118829667Y-137668000D01*
X118829667Y-138980333D01*
X117517333Y-138980333D01*
X116205000Y-138980333D01*
X116205000Y-137668000D01*
X116205000Y-136355667D01*
X117517333Y-136355667D01*
X118829667Y-136355667D01*
X118829667Y-133731000D01*
X118829667Y-131106333D01*
X120142000Y-131106333D01*
X121454333Y-131106333D01*
X121454333Y-129794000D01*
X121454333Y-128481667D01*
X122766667Y-128481667D01*
X124079000Y-128481667D01*
X124079000Y-129794000D01*
X124079000Y-131106333D01*
X126703667Y-131106333D01*
X129328333Y-131106333D01*
X129328333Y-129794000D01*
X129328333Y-128481667D01*
X131953000Y-128481667D01*
X134577667Y-128481667D01*
X134577667Y-124544667D01*
X134577667Y-120607667D01*
X135890000Y-120607667D01*
X137202333Y-120607667D01*
X137202333Y-119295333D01*
X137202333Y-117983000D01*
X138514667Y-117983000D01*
X139827000Y-117983000D01*
X139827000Y-119295333D01*
G37*
%TD.AperFunction*%
%TA.AperFunction,EtchedComponent*%
G36*
X58462333Y-135043333D02*
G01*
X58462333Y-136355667D01*
X57150000Y-136355667D01*
X55837667Y-136355667D01*
X55837667Y-138980333D01*
X55837667Y-141605000D01*
X57150000Y-141605000D01*
X58462333Y-141605000D01*
X58462333Y-142917333D01*
X58462333Y-144229667D01*
X55837667Y-144229667D01*
X53213000Y-144229667D01*
X53213000Y-138980333D01*
X53213000Y-133731000D01*
X55837667Y-133731000D01*
X58462333Y-133731000D01*
X58462333Y-135043333D01*
G37*
%TD.AperFunction*%
%TA.AperFunction,EtchedComponent*%
G36*
X87333667Y-131106333D02*
G01*
X87333667Y-133731000D01*
X88646000Y-133731000D01*
X89958333Y-133731000D01*
X89958333Y-135043333D01*
X89958333Y-136355667D01*
X88646000Y-136355667D01*
X87333667Y-136355667D01*
X87333667Y-137668000D01*
X87333667Y-138980333D01*
X84709000Y-138980333D01*
X82084333Y-138980333D01*
X82084333Y-140292667D01*
X82084333Y-141605000D01*
X80772000Y-141605000D01*
X79459667Y-141605000D01*
X79459667Y-140292667D01*
X79459667Y-138980333D01*
X72898000Y-138980333D01*
X66336333Y-138980333D01*
X66336333Y-140292667D01*
X66336333Y-141605000D01*
X70273333Y-141605000D01*
X74210333Y-141605000D01*
X74210333Y-142917333D01*
X74210333Y-144229667D01*
X67648667Y-144229667D01*
X61087000Y-144229667D01*
X61087000Y-141605000D01*
X61087000Y-138980333D01*
X59774667Y-138980333D01*
X58462333Y-138980333D01*
X58462333Y-137668000D01*
X58462333Y-136355667D01*
X59774667Y-136355667D01*
X61087000Y-136355667D01*
X61087000Y-137668000D01*
X61087000Y-138980333D01*
X62399333Y-138980333D01*
X63711667Y-138980333D01*
X63711667Y-136355667D01*
X63711667Y-133731000D01*
X65024000Y-133731000D01*
X66336333Y-133731000D01*
X66336333Y-135043333D01*
X66336333Y-136355667D01*
X68961000Y-136355667D01*
X71585667Y-136355667D01*
X71585667Y-135043333D01*
X71585667Y-133731000D01*
X72898000Y-133731000D01*
X74210333Y-133731000D01*
X74210333Y-135043333D01*
X74210333Y-136355667D01*
X75522667Y-136355667D01*
X76835000Y-136355667D01*
X76835000Y-135043333D01*
X76835000Y-133731000D01*
X80772000Y-133731000D01*
X84709000Y-133731000D01*
X84709000Y-131106333D01*
X84709000Y-128481667D01*
X86021333Y-128481667D01*
X87333667Y-128481667D01*
X87333667Y-131106333D01*
G37*
%TD.AperFunction*%
%TA.AperFunction,EtchedComponent*%
G36*
X113580333Y-81237667D02*
G01*
X113580333Y-83862333D01*
X112268000Y-83862333D01*
X110955667Y-83862333D01*
X110955667Y-85174667D01*
X110955667Y-86487000D01*
X112268000Y-86487000D01*
X113580333Y-86487000D01*
X113580333Y-87799333D01*
X113580333Y-89111667D01*
X110955667Y-89111667D01*
X108331000Y-89111667D01*
X108331000Y-90424000D01*
X108331000Y-91736333D01*
X107018667Y-91736333D01*
X105706333Y-91736333D01*
X105706333Y-93048667D01*
X105706333Y-94361000D01*
X104394000Y-94361000D01*
X103081667Y-94361000D01*
X103081667Y-95673333D01*
X103081667Y-96985667D01*
X104394000Y-96985667D01*
X105706333Y-96985667D01*
X105706333Y-95673333D01*
X105706333Y-94361000D01*
X107018667Y-94361000D01*
X108331000Y-94361000D01*
X108331000Y-96985667D01*
X108331000Y-99610333D01*
X107018667Y-99610333D01*
X105706333Y-99610333D01*
X105706333Y-102235000D01*
X105706333Y-104859667D01*
X104394000Y-104859667D01*
X103081667Y-104859667D01*
X103081667Y-102235000D01*
X103081667Y-99610333D01*
X101769333Y-99610333D01*
X100457000Y-99610333D01*
X100457000Y-103547333D01*
X100457000Y-107484333D01*
X101769333Y-107484333D01*
X103081667Y-107484333D01*
X103081667Y-108796667D01*
X103081667Y-110109000D01*
X101769333Y-110109000D01*
X100457000Y-110109000D01*
X100457000Y-111421333D01*
X100457000Y-112733667D01*
X99144667Y-112733667D01*
X97832333Y-112733667D01*
X97832333Y-111421333D01*
X97832333Y-110109000D01*
X96520000Y-110109000D01*
X95207667Y-110109000D01*
X95207667Y-108796667D01*
X95207667Y-107484333D01*
X92583000Y-107484333D01*
X89958333Y-107484333D01*
X89958333Y-110109000D01*
X89958333Y-112733667D01*
X88646000Y-112733667D01*
X87333667Y-112733667D01*
X87333667Y-114046000D01*
X87333667Y-115358333D01*
X88646000Y-115358333D01*
X89958333Y-115358333D01*
X89958333Y-116670667D01*
X89958333Y-117983000D01*
X91270667Y-117983000D01*
X92583000Y-117983000D01*
X92583000Y-119295333D01*
X92583000Y-120607667D01*
X93895333Y-120607667D01*
X95207667Y-120607667D01*
X95207667Y-121920000D01*
X95207667Y-123232333D01*
X96520000Y-123232333D01*
X97832333Y-123232333D01*
X97832333Y-124544667D01*
X97832333Y-125857000D01*
X99144667Y-125857000D01*
X100457000Y-125857000D01*
X100457000Y-121920000D01*
X100457000Y-117983000D01*
X101769333Y-117983000D01*
X103081667Y-117983000D01*
X103081667Y-120607667D01*
X103081667Y-123232333D01*
X105706333Y-123232333D01*
X108331000Y-123232333D01*
X108331000Y-124544667D01*
X108331000Y-125857000D01*
X107018667Y-125857000D01*
X105706333Y-125857000D01*
X105706333Y-127169333D01*
X105706333Y-128481667D01*
X107018667Y-128481667D01*
X108331000Y-128481667D01*
X108331000Y-132418667D01*
X108331000Y-136355667D01*
X105706333Y-136355667D01*
X103081667Y-136355667D01*
X103081667Y-135043333D01*
X103081667Y-133731000D01*
X104394000Y-133731000D01*
X105706333Y-133731000D01*
X105706333Y-132418667D01*
X105706333Y-131106333D01*
X104394000Y-131106333D01*
X103081667Y-131106333D01*
X103081667Y-129794000D01*
X103081667Y-128481667D01*
X100457000Y-128481667D01*
X97832333Y-128481667D01*
X97832333Y-129794000D01*
X97832333Y-131106333D01*
X95207667Y-131106333D01*
X92583000Y-131106333D01*
X92583000Y-127169333D01*
X92583000Y-123232333D01*
X91270667Y-123232333D01*
X89958333Y-123232333D01*
X89958333Y-121920000D01*
X89958333Y-120607667D01*
X86021333Y-120607667D01*
X82084333Y-120607667D01*
X82084333Y-121920000D01*
X82084333Y-123232333D01*
X80772000Y-123232333D01*
X79459667Y-123232333D01*
X79459667Y-125857000D01*
X79459667Y-128481667D01*
X80772000Y-128481667D01*
X82084333Y-128481667D01*
X82084333Y-129794000D01*
X82084333Y-131106333D01*
X79459667Y-131106333D01*
X76835000Y-131106333D01*
X76835000Y-132418667D01*
X76835000Y-133731000D01*
X75522667Y-133731000D01*
X74210333Y-133731000D01*
X74210333Y-132418667D01*
X74210333Y-131106333D01*
X72898000Y-131106333D01*
X71585667Y-131106333D01*
X71585667Y-132418667D01*
X71585667Y-133731000D01*
X70273333Y-133731000D01*
X68961000Y-133731000D01*
X68961000Y-132418667D01*
X68961000Y-131106333D01*
X61087000Y-131106333D01*
X53213000Y-131106333D01*
X53213000Y-129794000D01*
X68961000Y-129794000D01*
X68961000Y-131106333D01*
X70273333Y-131106333D01*
X71585667Y-131106333D01*
X71585667Y-129794000D01*
X71585667Y-128481667D01*
X74210333Y-128481667D01*
X76835000Y-128481667D01*
X76835000Y-127169333D01*
X76835000Y-125857000D01*
X74210333Y-125857000D01*
X71585667Y-125857000D01*
X71585667Y-127169333D01*
X71585667Y-128481667D01*
X70273333Y-128481667D01*
X68961000Y-128481667D01*
X68961000Y-129794000D01*
X53213000Y-129794000D01*
X53213000Y-128481667D01*
X55837667Y-128481667D01*
X58462333Y-128481667D01*
X58462333Y-127169333D01*
X58462333Y-125857000D01*
X59774667Y-125857000D01*
X61087000Y-125857000D01*
X61087000Y-127169333D01*
X61087000Y-128481667D01*
X63711667Y-128481667D01*
X66336333Y-128481667D01*
X66336333Y-127169333D01*
X66336333Y-125857000D01*
X68961000Y-125857000D01*
X71585667Y-125857000D01*
X71585667Y-124544667D01*
X71585667Y-123232333D01*
X74210333Y-123232333D01*
X75522667Y-123232333D01*
X76835000Y-123232333D01*
X76835000Y-121920000D01*
X76835000Y-120607667D01*
X75522667Y-120607667D01*
X74210333Y-120607667D01*
X74210333Y-121920000D01*
X74210333Y-123232333D01*
X71585667Y-123232333D01*
X70273333Y-123232333D01*
X68961000Y-123232333D01*
X68961000Y-121920000D01*
X68961000Y-120607667D01*
X71585667Y-120607667D01*
X74210333Y-120607667D01*
X74210333Y-116670667D01*
X74210333Y-112733667D01*
X76835000Y-112733667D01*
X79459667Y-112733667D01*
X79459667Y-114046000D01*
X79459667Y-115358333D01*
X78147333Y-115358333D01*
X76835000Y-115358333D01*
X76835000Y-116670667D01*
X76835000Y-117983000D01*
X78147333Y-117983000D01*
X79459667Y-117983000D01*
X79459667Y-116670667D01*
X79459667Y-115358333D01*
X80772000Y-115358333D01*
X82084333Y-115358333D01*
X82084333Y-116670667D01*
X82084333Y-117983000D01*
X83396667Y-117983000D01*
X84709000Y-117983000D01*
X84709000Y-115358333D01*
X84709000Y-112733667D01*
X83396667Y-112733667D01*
X82084333Y-112733667D01*
X82084333Y-111421333D01*
X82084333Y-110109000D01*
X83396667Y-110109000D01*
X84709000Y-110109000D01*
X84709000Y-108796667D01*
X84709000Y-107484333D01*
X83396667Y-107484333D01*
X82084333Y-107484333D01*
X82084333Y-108796667D01*
X82084333Y-110109000D01*
X80772000Y-110109000D01*
X79459667Y-110109000D01*
X79459667Y-108796667D01*
X79459667Y-107484333D01*
X78147333Y-107484333D01*
X76835000Y-107484333D01*
X76835000Y-108796667D01*
X76835000Y-110109000D01*
X74210333Y-110109000D01*
X71585667Y-110109000D01*
X71585667Y-111421333D01*
X71585667Y-112733667D01*
X70273333Y-112733667D01*
X68961000Y-112733667D01*
X68961000Y-114046000D01*
X68961000Y-115358333D01*
X67648667Y-115358333D01*
X66336333Y-115358333D01*
X66336333Y-117983000D01*
X66336333Y-120607667D01*
X65024000Y-120607667D01*
X63711667Y-120607667D01*
X63711667Y-121920000D01*
X63711667Y-123232333D01*
X62399333Y-123232333D01*
X61087000Y-123232333D01*
X61087000Y-121920000D01*
X61087000Y-120607667D01*
X58462333Y-120607667D01*
X55837667Y-120607667D01*
X55837667Y-117983000D01*
X55837667Y-115358333D01*
X57150000Y-115358333D01*
X58462333Y-115358333D01*
X58462333Y-116670667D01*
X58462333Y-117983000D01*
X59774667Y-117983000D01*
X61087000Y-117983000D01*
X61087000Y-119295333D01*
X61087000Y-120607667D01*
X62399333Y-120607667D01*
X63711667Y-120607667D01*
X63711667Y-115358333D01*
X63711667Y-110109000D01*
X65024000Y-110109000D01*
X66336333Y-110109000D01*
X66336333Y-111421333D01*
X66336333Y-112733667D01*
X67648667Y-112733667D01*
X68961000Y-112733667D01*
X68961000Y-111421333D01*
X68961000Y-110109000D01*
X70273333Y-110109000D01*
X71585667Y-110109000D01*
X71585667Y-108796667D01*
X71585667Y-107484333D01*
X70273333Y-107484333D01*
X68961000Y-107484333D01*
X68961000Y-108796667D01*
X68961000Y-110109000D01*
X67648667Y-110109000D01*
X66336333Y-110109000D01*
X66336333Y-108796667D01*
X66336333Y-107484333D01*
X65024000Y-107484333D01*
X63711667Y-107484333D01*
X63711667Y-108796667D01*
X63711667Y-110109000D01*
X62399333Y-110109000D01*
X61087000Y-110109000D01*
X61087000Y-108796667D01*
X61087000Y-107484333D01*
X62399333Y-107484333D01*
X63711667Y-107484333D01*
X63711667Y-106172000D01*
X63711667Y-104859667D01*
X65024000Y-104859667D01*
X66336333Y-104859667D01*
X66336333Y-106172000D01*
X66336333Y-107484333D01*
X67648667Y-107484333D01*
X68961000Y-107484333D01*
X68961000Y-106172000D01*
X68961000Y-104859667D01*
X70273333Y-104859667D01*
X71585667Y-104859667D01*
X71585667Y-103547333D01*
X71585667Y-102235000D01*
X70273333Y-102235000D01*
X68961000Y-102235000D01*
X68961000Y-100922667D01*
X68961000Y-99610333D01*
X70273333Y-99610333D01*
X71585667Y-99610333D01*
X71585667Y-100922667D01*
X71585667Y-102235000D01*
X72898000Y-102235000D01*
X74210333Y-102235000D01*
X74210333Y-98298000D01*
X74210333Y-94361000D01*
X75522667Y-94361000D01*
X76835000Y-94361000D01*
X76835000Y-99610333D01*
X76835000Y-104859667D01*
X78147333Y-104859667D01*
X79459667Y-104859667D01*
X79459667Y-103547333D01*
X79459667Y-102235000D01*
X80772000Y-102235000D01*
X82084333Y-102235000D01*
X82084333Y-103547333D01*
X82084333Y-104859667D01*
X84709000Y-104859667D01*
X87333667Y-104859667D01*
X87333667Y-102235000D01*
X87333667Y-99610333D01*
X88646000Y-99610333D01*
X89958333Y-99610333D01*
X89958333Y-100922667D01*
X89958333Y-102235000D01*
X93895333Y-102235000D01*
X97832333Y-102235000D01*
X97832333Y-100922667D01*
X97832333Y-99610333D01*
X95207667Y-99610333D01*
X92583000Y-99610333D01*
X92583000Y-98298000D01*
X92583000Y-96985667D01*
X91270667Y-96985667D01*
X89958333Y-96985667D01*
X89958333Y-95673333D01*
X89958333Y-94361000D01*
X91270667Y-94361000D01*
X92583000Y-94361000D01*
X92583000Y-93048667D01*
X92583000Y-91736333D01*
X91270667Y-91736333D01*
X89958333Y-91736333D01*
X89958333Y-93048667D01*
X89958333Y-94361000D01*
X88646000Y-94361000D01*
X87333667Y-94361000D01*
X87333667Y-95673333D01*
X87333667Y-96985667D01*
X86021333Y-96985667D01*
X84709000Y-96985667D01*
X84709000Y-98298000D01*
X84709000Y-99610333D01*
X82084333Y-99610333D01*
X79459667Y-99610333D01*
X79459667Y-96985667D01*
X82084333Y-96985667D01*
X83396667Y-96985667D01*
X84709000Y-96985667D01*
X84709000Y-95673333D01*
X84709000Y-94361000D01*
X86021333Y-94361000D01*
X87333667Y-94361000D01*
X87333667Y-93048667D01*
X87333667Y-91736333D01*
X86021333Y-91736333D01*
X84709000Y-91736333D01*
X84709000Y-90424000D01*
X84709000Y-89111667D01*
X83396667Y-89111667D01*
X82084333Y-89111667D01*
X82084333Y-93048667D01*
X82084333Y-96985667D01*
X79459667Y-96985667D01*
X79459667Y-95673333D01*
X79459667Y-93048667D01*
X79459667Y-91736333D01*
X78147333Y-91736333D01*
X76835000Y-91736333D01*
X76835000Y-90424000D01*
X76835000Y-89111667D01*
X75522667Y-89111667D01*
X74210333Y-89111667D01*
X74210333Y-85174667D01*
X74210333Y-81237667D01*
X76835000Y-81237667D01*
X79459667Y-81237667D01*
X79459667Y-82550000D01*
X79459667Y-83862333D01*
X78147333Y-83862333D01*
X76835000Y-83862333D01*
X76835000Y-85174667D01*
X76835000Y-86487000D01*
X82084333Y-86487000D01*
X87333667Y-86487000D01*
X87333667Y-89111667D01*
X87333667Y-91736333D01*
X88646000Y-91736333D01*
X89958333Y-91736333D01*
X89958333Y-87799333D01*
X89958333Y-83862333D01*
X92583000Y-83862333D01*
X95207667Y-83862333D01*
X95207667Y-85174667D01*
X95207667Y-86487000D01*
X93895333Y-86487000D01*
X92583000Y-86487000D01*
X92583000Y-87799333D01*
X92583000Y-89111667D01*
X93895333Y-89111667D01*
X95207667Y-89111667D01*
X95207667Y-87799333D01*
X95207667Y-86487000D01*
X96520000Y-86487000D01*
X97832333Y-86487000D01*
X97832333Y-89111667D01*
X97832333Y-91736333D01*
X96520000Y-91736333D01*
X95207667Y-91736333D01*
X95207667Y-93048667D01*
X95207667Y-94361000D01*
X93895333Y-94361000D01*
X92583000Y-94361000D01*
X92583000Y-95673333D01*
X92583000Y-96985667D01*
X93895333Y-96985667D01*
X95207667Y-96985667D01*
X95207667Y-95673333D01*
X95207667Y-94361000D01*
X96520000Y-94361000D01*
X97832333Y-94361000D01*
X97832333Y-96985667D01*
X97832333Y-99610333D01*
X99144667Y-99610333D01*
X100457000Y-99610333D01*
X100457000Y-96985667D01*
X100457000Y-94361000D01*
X101769333Y-94361000D01*
X103081667Y-94361000D01*
X103081667Y-93048667D01*
X103081667Y-91736333D01*
X104394000Y-91736333D01*
X105706333Y-91736333D01*
X105706333Y-86487000D01*
X105706333Y-83862333D01*
X108331000Y-83862333D01*
X109643333Y-83862333D01*
X110955667Y-83862333D01*
X110955667Y-82550000D01*
X110955667Y-81237667D01*
X109643333Y-81237667D01*
X108331000Y-81237667D01*
X108331000Y-82550000D01*
X108331000Y-83862333D01*
X105706333Y-83862333D01*
X105706333Y-82550000D01*
X105706333Y-81237667D01*
X107018667Y-81237667D01*
X108331000Y-81237667D01*
X108331000Y-79925333D01*
X108331000Y-78613000D01*
X110955667Y-78613000D01*
X113580333Y-78613000D01*
X113580333Y-81237667D01*
G37*
%TD.AperFunction*%
%TA.AperFunction,EtchedComponent*%
G36*
X58462333Y-124544667D02*
G01*
X58462333Y-125857000D01*
X57150000Y-125857000D01*
X55837667Y-125857000D01*
X55837667Y-124544667D01*
X55837667Y-123232333D01*
X57150000Y-123232333D01*
X58462333Y-123232333D01*
X58462333Y-124544667D01*
G37*
%TD.AperFunction*%
%TA.AperFunction,EtchedComponent*%
G36*
X118829667Y-94361000D02*
G01*
X118829667Y-99610333D01*
X121454333Y-99610333D01*
X124079000Y-99610333D01*
X124079000Y-100922667D01*
X124079000Y-102235000D01*
X126703667Y-102235000D01*
X129328333Y-102235000D01*
X129328333Y-100922667D01*
X129328333Y-99610333D01*
X133265333Y-99610333D01*
X137202333Y-99610333D01*
X137202333Y-102235000D01*
X137202333Y-104859667D01*
X135890000Y-104859667D01*
X134577667Y-104859667D01*
X134577667Y-106172000D01*
X134577667Y-107484333D01*
X135890000Y-107484333D01*
X137202333Y-107484333D01*
X137202333Y-108796667D01*
X137202333Y-110109000D01*
X138514667Y-110109000D01*
X139827000Y-110109000D01*
X139827000Y-112733667D01*
X139827000Y-115358333D01*
X138514667Y-115358333D01*
X137202333Y-115358333D01*
X137202333Y-116670667D01*
X137202333Y-117983000D01*
X135890000Y-117983000D01*
X134577667Y-117983000D01*
X134577667Y-119295333D01*
X134577667Y-120607667D01*
X133265333Y-120607667D01*
X131953000Y-120607667D01*
X131953000Y-119295333D01*
X131953000Y-117983000D01*
X130640667Y-117983000D01*
X129328333Y-117983000D01*
X129328333Y-116670667D01*
X129328333Y-115358333D01*
X133265333Y-115358333D01*
X137202333Y-115358333D01*
X137202333Y-114046000D01*
X137202333Y-112733667D01*
X135890000Y-112733667D01*
X134577667Y-112733667D01*
X134577667Y-111421333D01*
X134577667Y-110109000D01*
X133265333Y-110109000D01*
X131953000Y-110109000D01*
X131953000Y-111421333D01*
X131953000Y-112733667D01*
X130640667Y-112733667D01*
X129328333Y-112733667D01*
X129328333Y-110109000D01*
X129328333Y-107484333D01*
X130640667Y-107484333D01*
X131953000Y-107484333D01*
X131953000Y-106172000D01*
X131953000Y-104859667D01*
X133265333Y-104859667D01*
X134577667Y-104859667D01*
X134577667Y-103547333D01*
X134577667Y-102235000D01*
X131953000Y-102235000D01*
X129328333Y-102235000D01*
X129328333Y-103547333D01*
X129328333Y-104859667D01*
X128016000Y-104859667D01*
X126703667Y-104859667D01*
X126703667Y-106172000D01*
X126703667Y-107484333D01*
X125391333Y-107484333D01*
X124079000Y-107484333D01*
X124079000Y-106172000D01*
X124079000Y-104859667D01*
X122766667Y-104859667D01*
X121454333Y-104859667D01*
X121454333Y-103547333D01*
X121454333Y-102235000D01*
X118829667Y-102235000D01*
X116205000Y-102235000D01*
X116205000Y-96985667D01*
X116205000Y-91736333D01*
X114892667Y-91736333D01*
X113580333Y-91736333D01*
X113580333Y-90424000D01*
X113580333Y-89111667D01*
X116205000Y-89111667D01*
X118829667Y-89111667D01*
X118829667Y-94361000D01*
G37*
%TD.AperFunction*%
%TA.AperFunction,EtchedComponent*%
G36*
X71585667Y-116670667D02*
G01*
X71585667Y-117983000D01*
X70273333Y-117983000D01*
X68961000Y-117983000D01*
X68961000Y-116670667D01*
X68961000Y-115358333D01*
X70273333Y-115358333D01*
X71585667Y-115358333D01*
X71585667Y-116670667D01*
G37*
%TD.AperFunction*%
%TA.AperFunction,EtchedComponent*%
G36*
X61087000Y-103547333D02*
G01*
X61087000Y-104859667D01*
X59774667Y-104859667D01*
X58462333Y-104859667D01*
X58462333Y-108796667D01*
X58462333Y-112733667D01*
X57150000Y-112733667D01*
X55837667Y-112733667D01*
X55837667Y-114046000D01*
X55837667Y-115358333D01*
X54525333Y-115358333D01*
X53213000Y-115358333D01*
X53213000Y-114046000D01*
X53213000Y-112733667D01*
X54525333Y-112733667D01*
X55837667Y-112733667D01*
X55837667Y-111421333D01*
X55837667Y-110109000D01*
X54525333Y-110109000D01*
X53213000Y-110109000D01*
X53213000Y-107484333D01*
X53213000Y-104859667D01*
X55837667Y-104859667D01*
X58462333Y-104859667D01*
X58462333Y-103547333D01*
X58462333Y-102235000D01*
X59774667Y-102235000D01*
X61087000Y-102235000D01*
X61087000Y-103547333D01*
G37*
%TD.AperFunction*%
%TA.AperFunction,EtchedComponent*%
G36*
X55837667Y-100922667D02*
G01*
X55837667Y-102235000D01*
X54525333Y-102235000D01*
X53213000Y-102235000D01*
X53213000Y-100922667D01*
X53213000Y-99610333D01*
X54525333Y-99610333D01*
X55837667Y-99610333D01*
X55837667Y-100922667D01*
G37*
%TD.AperFunction*%
%TA.AperFunction,EtchedComponent*%
G36*
X71585667Y-87799333D02*
G01*
X71585667Y-96985667D01*
X62399333Y-96985667D01*
X53213000Y-96985667D01*
X53213000Y-94191667D01*
X56007000Y-94191667D01*
X62399333Y-94191667D01*
X68791667Y-94191667D01*
X68791667Y-87799333D01*
X68791667Y-81407000D01*
X62399333Y-81407000D01*
X56007000Y-81407000D01*
X56007000Y-87799333D01*
X56007000Y-94191667D01*
X53213000Y-94191667D01*
X53213000Y-87799333D01*
X53213000Y-78613000D01*
X62399333Y-78613000D01*
X71585667Y-78613000D01*
X71585667Y-87799333D01*
G37*
%TD.AperFunction*%
%TA.AperFunction,EtchedComponent*%
G36*
X139827000Y-87799333D02*
G01*
X139827000Y-96985667D01*
X130640667Y-96985667D01*
X121454333Y-96985667D01*
X121454333Y-94191667D01*
X124248333Y-94191667D01*
X130640667Y-94191667D01*
X137033000Y-94191667D01*
X137033000Y-87799333D01*
X137033000Y-81407000D01*
X130640667Y-81407000D01*
X124248333Y-81407000D01*
X124248333Y-87799333D01*
X124248333Y-94191667D01*
X121454333Y-94191667D01*
X121454333Y-87799333D01*
X121454333Y-78613000D01*
X130640667Y-78613000D01*
X139827000Y-78613000D01*
X139827000Y-87799333D01*
G37*
%TD.AperFunction*%
%TA.AperFunction,EtchedComponent*%
G36*
X103081667Y-87799333D02*
G01*
X103081667Y-89111667D01*
X101769333Y-89111667D01*
X100457000Y-89111667D01*
X100457000Y-87799333D01*
X100457000Y-86487000D01*
X101769333Y-86487000D01*
X103081667Y-86487000D01*
X103081667Y-87799333D01*
G37*
%TD.AperFunction*%
%TA.AperFunction,EtchedComponent*%
G36*
X118829667Y-85174667D02*
G01*
X118829667Y-86487000D01*
X117517333Y-86487000D01*
X116205000Y-86487000D01*
X116205000Y-85174667D01*
X116205000Y-83862333D01*
X117517333Y-83862333D01*
X118829667Y-83862333D01*
X118829667Y-85174667D01*
G37*
%TD.AperFunction*%
%TA.AperFunction,EtchedComponent*%
G36*
X89958333Y-79925333D02*
G01*
X89958333Y-81237667D01*
X88646000Y-81237667D01*
X87333667Y-81237667D01*
X87333667Y-82550000D01*
X87333667Y-83862333D01*
X84709000Y-83862333D01*
X82084333Y-83862333D01*
X82084333Y-82550000D01*
X82084333Y-81237667D01*
X83396667Y-81237667D01*
X84709000Y-81237667D01*
X84709000Y-79925333D01*
X84709000Y-78613000D01*
X87333667Y-78613000D01*
X89958333Y-78613000D01*
X89958333Y-79925333D01*
G37*
%TD.AperFunction*%
%TA.AperFunction,EtchedComponent*%
G36*
X103081667Y-82550000D02*
G01*
X103081667Y-83862333D01*
X101769333Y-83862333D01*
X100457000Y-83862333D01*
X100457000Y-82550000D01*
X100457000Y-81237667D01*
X101769333Y-81237667D01*
X103081667Y-81237667D01*
X103081667Y-82550000D01*
G37*
%TD.AperFunction*%
%TA.AperFunction,EtchedComponent*%
G36*
X100457000Y-79925333D02*
G01*
X100457000Y-81237667D01*
X97832333Y-81237667D01*
X95207667Y-81237667D01*
X95207667Y-79925333D01*
X95207667Y-78613000D01*
X97832333Y-78613000D01*
X100457000Y-78613000D01*
X100457000Y-79925333D01*
G37*
%TD.AperFunction*%
%TA.AperFunction,EtchedComponent*%
G36*
X66336333Y-156040667D02*
G01*
X66336333Y-159977667D01*
X62399333Y-159977667D01*
X58462333Y-159977667D01*
X58462333Y-156040667D01*
X58462333Y-152103667D01*
X62399333Y-152103667D01*
X66336333Y-152103667D01*
X66336333Y-156040667D01*
G37*
%TD.AperFunction*%
%TA.AperFunction,EtchedComponent*%
G36*
X87333667Y-156040667D02*
G01*
X87333667Y-157353000D01*
X86021333Y-157353000D01*
X84709000Y-157353000D01*
X84709000Y-156040667D01*
X84709000Y-154728333D01*
X86021333Y-154728333D01*
X87333667Y-154728333D01*
X87333667Y-156040667D01*
G37*
%TD.AperFunction*%
%TA.AperFunction,EtchedComponent*%
G36*
X87333667Y-144229667D02*
G01*
X87333667Y-146854333D01*
X86021333Y-146854333D01*
X84709000Y-146854333D01*
X84709000Y-148166667D01*
X84709000Y-149479000D01*
X83396667Y-149479000D01*
X82084333Y-149479000D01*
X82084333Y-148166667D01*
X82084333Y-146854333D01*
X83396667Y-146854333D01*
X84709000Y-146854333D01*
X84709000Y-145542000D01*
X84709000Y-144229667D01*
X83396667Y-144229667D01*
X82084333Y-144229667D01*
X82084333Y-142917333D01*
X82084333Y-141605000D01*
X84709000Y-141605000D01*
X87333667Y-141605000D01*
X87333667Y-144229667D01*
G37*
%TD.AperFunction*%
%TA.AperFunction,EtchedComponent*%
G36*
X79459667Y-142917333D02*
G01*
X79459667Y-144229667D01*
X78147333Y-144229667D01*
X76835000Y-144229667D01*
X76835000Y-142917333D01*
X76835000Y-141605000D01*
X78147333Y-141605000D01*
X79459667Y-141605000D01*
X79459667Y-142917333D01*
G37*
%TD.AperFunction*%
%TA.AperFunction,EtchedComponent*%
G36*
X110955667Y-137668000D02*
G01*
X110955667Y-138980333D01*
X109643333Y-138980333D01*
X108331000Y-138980333D01*
X108331000Y-137668000D01*
X108331000Y-136355667D01*
X109643333Y-136355667D01*
X110955667Y-136355667D01*
X110955667Y-137668000D01*
G37*
%TD.AperFunction*%
%TA.AperFunction,EtchedComponent*%
G36*
X116205000Y-135043333D02*
G01*
X116205000Y-136355667D01*
X114892667Y-136355667D01*
X113580333Y-136355667D01*
X113580333Y-135043333D01*
X113580333Y-133731000D01*
X114892667Y-133731000D01*
X116205000Y-133731000D01*
X116205000Y-135043333D01*
G37*
%TD.AperFunction*%
%TA.AperFunction,EtchedComponent*%
G36*
X103081667Y-132418667D02*
G01*
X103081667Y-133731000D01*
X101769333Y-133731000D01*
X100457000Y-133731000D01*
X100457000Y-132418667D01*
X100457000Y-131106333D01*
X101769333Y-131106333D01*
X103081667Y-131106333D01*
X103081667Y-132418667D01*
G37*
%TD.AperFunction*%
%TA.AperFunction,EtchedComponent*%
G36*
X118829667Y-110109000D02*
G01*
X118829667Y-115358333D01*
X116205000Y-115358333D01*
X113580333Y-115358333D01*
X113580333Y-117983000D01*
X113580333Y-120607667D01*
X114892667Y-120607667D01*
X116205000Y-120607667D01*
X116205000Y-119295333D01*
X116205000Y-117983000D01*
X117517333Y-117983000D01*
X118829667Y-117983000D01*
X118829667Y-116670667D01*
X118829667Y-115358333D01*
X121454333Y-115358333D01*
X124079000Y-115358333D01*
X124079000Y-116670667D01*
X124079000Y-117983000D01*
X125391333Y-117983000D01*
X126703667Y-117983000D01*
X126703667Y-119295333D01*
X126703667Y-120607667D01*
X129328333Y-120607667D01*
X131953000Y-120607667D01*
X131953000Y-123232333D01*
X131953000Y-125857000D01*
X130640667Y-125857000D01*
X129328333Y-125857000D01*
X129328333Y-124544667D01*
X129328333Y-123232333D01*
X126703667Y-123232333D01*
X124079000Y-123232333D01*
X124079000Y-124544667D01*
X124079000Y-125857000D01*
X122766667Y-125857000D01*
X121454333Y-125857000D01*
X121454333Y-127169333D01*
X121454333Y-128481667D01*
X120142000Y-128481667D01*
X118829667Y-128481667D01*
X118829667Y-129794000D01*
X118829667Y-131106333D01*
X116205000Y-131106333D01*
X113580333Y-131106333D01*
X113580333Y-129794000D01*
X113580333Y-128481667D01*
X110955667Y-128481667D01*
X108331000Y-128481667D01*
X108331000Y-127169333D01*
X108331000Y-125857000D01*
X110955667Y-125857000D01*
X113580333Y-125857000D01*
X116205000Y-125857000D01*
X116205000Y-128481667D01*
X117517333Y-128481667D01*
X118829667Y-128481667D01*
X118829667Y-127169333D01*
X118829667Y-125857000D01*
X120142000Y-125857000D01*
X121454333Y-125857000D01*
X121454333Y-124544667D01*
X121454333Y-123232333D01*
X122766667Y-123232333D01*
X124079000Y-123232333D01*
X124079000Y-121920000D01*
X124079000Y-120607667D01*
X122766667Y-120607667D01*
X121454333Y-120607667D01*
X121454333Y-121920000D01*
X121454333Y-123232333D01*
X118829667Y-123232333D01*
X116205000Y-123232333D01*
X116205000Y-125857000D01*
X113580333Y-125857000D01*
X113580333Y-123232333D01*
X113580333Y-120607667D01*
X112268000Y-120607667D01*
X110955667Y-120607667D01*
X110955667Y-119295333D01*
X110955667Y-117983000D01*
X109643333Y-117983000D01*
X108331000Y-117983000D01*
X108331000Y-115358333D01*
X108331000Y-112733667D01*
X109643333Y-112733667D01*
X110955667Y-112733667D01*
X110955667Y-114046000D01*
X110955667Y-115358333D01*
X112268000Y-115358333D01*
X113580333Y-115358333D01*
X113580333Y-114046000D01*
X113580333Y-112733667D01*
X114892667Y-112733667D01*
X116205000Y-112733667D01*
X116205000Y-108796667D01*
X116205000Y-104859667D01*
X117517333Y-104859667D01*
X118829667Y-104859667D01*
X118829667Y-110109000D01*
G37*
%TD.AperFunction*%
%TA.AperFunction,EtchedComponent*%
G36*
X113580333Y-100922667D02*
G01*
X113580333Y-102235000D01*
X114892667Y-102235000D01*
X116205000Y-102235000D01*
X116205000Y-103547333D01*
X116205000Y-104859667D01*
X114892667Y-104859667D01*
X113580333Y-104859667D01*
X113580333Y-106172000D01*
X113580333Y-107484333D01*
X110955667Y-107484333D01*
X108331000Y-107484333D01*
X108331000Y-110109000D01*
X108331000Y-112733667D01*
X107018667Y-112733667D01*
X105706333Y-112733667D01*
X105706333Y-110109000D01*
X105706333Y-107484333D01*
X107018667Y-107484333D01*
X108331000Y-107484333D01*
X108331000Y-104859667D01*
X108331000Y-102235000D01*
X109643333Y-102235000D01*
X110955667Y-102235000D01*
X110955667Y-100922667D01*
X110955667Y-99610333D01*
X112268000Y-99610333D01*
X113580333Y-99610333D01*
X113580333Y-100922667D01*
G37*
%TD.AperFunction*%
%TA.AperFunction,EtchedComponent*%
G36*
X89958333Y-125857000D02*
G01*
X89958333Y-128481667D01*
X88646000Y-128481667D01*
X87333667Y-128481667D01*
X87333667Y-125857000D01*
X87333667Y-123232333D01*
X88646000Y-123232333D01*
X89958333Y-123232333D01*
X89958333Y-125857000D01*
G37*
%TD.AperFunction*%
%TA.AperFunction,EtchedComponent*%
G36*
X84709000Y-124544667D02*
G01*
X84709000Y-125857000D01*
X83396667Y-125857000D01*
X82084333Y-125857000D01*
X82084333Y-124544667D01*
X82084333Y-123232333D01*
X83396667Y-123232333D01*
X84709000Y-123232333D01*
X84709000Y-124544667D01*
G37*
%TD.AperFunction*%
%TA.AperFunction,EtchedComponent*%
G36*
X97832333Y-117983000D02*
G01*
X97832333Y-120607667D01*
X96520000Y-120607667D01*
X95207667Y-120607667D01*
X95207667Y-119295333D01*
X95207667Y-117983000D01*
X93895333Y-117983000D01*
X92583000Y-117983000D01*
X92583000Y-116670667D01*
X92583000Y-115358333D01*
X95207667Y-115358333D01*
X97832333Y-115358333D01*
X97832333Y-117983000D01*
G37*
%TD.AperFunction*%
%TA.AperFunction,EtchedComponent*%
G36*
X103081667Y-114046000D02*
G01*
X103081667Y-115358333D01*
X101769333Y-115358333D01*
X100457000Y-115358333D01*
X100457000Y-114046000D01*
X100457000Y-112733667D01*
X101769333Y-112733667D01*
X103081667Y-112733667D01*
X103081667Y-114046000D01*
G37*
%TD.AperFunction*%
%TA.AperFunction,EtchedComponent*%
G36*
X95207667Y-111421333D02*
G01*
X95207667Y-112733667D01*
X93895333Y-112733667D01*
X92583000Y-112733667D01*
X92583000Y-111421333D01*
X92583000Y-110109000D01*
X93895333Y-110109000D01*
X95207667Y-110109000D01*
X95207667Y-111421333D01*
G37*
%TD.AperFunction*%
%TA.AperFunction,EtchedComponent*%
G36*
X126703667Y-111421333D02*
G01*
X126703667Y-112733667D01*
X124079000Y-112733667D01*
X121454333Y-112733667D01*
X121454333Y-111421333D01*
X121454333Y-110109000D01*
X124079000Y-110109000D01*
X126703667Y-110109000D01*
X126703667Y-111421333D01*
G37*
%TD.AperFunction*%
%TA.AperFunction,EtchedComponent*%
G36*
X113580333Y-94361000D02*
G01*
X113580333Y-96985667D01*
X112268000Y-96985667D01*
X110955667Y-96985667D01*
X110955667Y-94361000D01*
X110955667Y-91736333D01*
X112268000Y-91736333D01*
X113580333Y-91736333D01*
X113580333Y-94361000D01*
G37*
%TD.AperFunction*%
%TA.AperFunction,EtchedComponent*%
G36*
X124079000Y-148166667D02*
G01*
X124079000Y-149479000D01*
X122766667Y-149479000D01*
X121454333Y-149479000D01*
X121454333Y-148166667D01*
X121454333Y-146854333D01*
X122766667Y-146854333D01*
X124079000Y-146854333D01*
X124079000Y-148166667D01*
G37*
%TD.AperFunction*%
%TA.AperFunction,EtchedComponent*%
G36*
X66336333Y-87799333D02*
G01*
X66336333Y-91736333D01*
X62399333Y-91736333D01*
X58462333Y-91736333D01*
X58462333Y-87799333D01*
X58462333Y-83862333D01*
X62399333Y-83862333D01*
X66336333Y-83862333D01*
X66336333Y-87799333D01*
G37*
%TD.AperFunction*%
%TA.AperFunction,EtchedComponent*%
G36*
X134577667Y-87799333D02*
G01*
X134577667Y-91736333D01*
X130640667Y-91736333D01*
X126703667Y-91736333D01*
X126703667Y-87799333D01*
X126703667Y-83862333D01*
X130640667Y-83862333D01*
X134577667Y-83862333D01*
X134577667Y-87799333D01*
G37*
%TD.AperFunction*%
%TA.AperFunction,EtchedComponent*%
G36*
X113580333Y-111421333D02*
G01*
X113580333Y-112733667D01*
X112268000Y-112733667D01*
X110955667Y-112733667D01*
X110955667Y-111421333D01*
X110955667Y-110109000D01*
X112268000Y-110109000D01*
X113580333Y-110109000D01*
X113580333Y-111421333D01*
G37*
%TD.AperFunction*%
%TD*%
M02*
